<svg width="672" height="403" viewBox="0 0 672 403" fill="none" xmlns="http://www.w3.org/2000/svg">
<g clip-path="url(#clip0_423_130)">
<rect width="672" height="403" rx="12" fill="white"/>
<g opacity="0.05">
<path d="M551.378 393.368C542.908 398.257 537.988 399.034 536.039 395.658C535.795 395.236 535.91 394.794 536.327 394.553C537.021 394.153 537.495 393.691 537.529 393.109C537.794 391.643 536.46 389.974 536.46 389.974C533.454 384.769 535.403 378.204 540.818 375.077C546.233 371.951 552.892 373.546 555.817 378.611C558.741 383.676 556.793 390.241 551.378 393.368ZM537.891 395.339C539.641 396.767 544.04 395.728 550.565 391.961C555.147 389.315 556.865 383.634 554.428 379.413C551.991 375.192 546.212 373.839 541.63 376.484C537.048 379.129 535.33 384.811 537.767 389.032C537.767 389.032 539.565 391.183 539.127 393.312C538.897 394.195 538.504 394.797 537.891 395.339Z" fill="#4A0056"/>
<path d="M555.78 394.578C557.313 393.693 557.829 391.715 556.932 390.161C556.035 388.607 554.064 388.065 552.53 388.95C550.997 389.836 550.481 391.813 551.378 393.367C552.275 394.921 554.246 395.463 555.78 394.578Z" fill="#4A0056"/>
<path d="M547.449 399.388C548.982 398.502 549.498 396.525 548.601 394.971C547.704 393.417 545.733 392.875 544.199 393.76C542.666 394.645 542.15 396.623 543.047 398.177C543.944 399.731 545.915 400.273 547.449 399.388Z" fill="#4A0056"/>
<path d="M542.509 384.419C542.092 384.659 541.652 384.538 541.408 384.116C541.165 383.694 541.28 383.252 541.696 383.012C542.113 382.771 542.553 382.892 542.797 383.314C543.04 383.737 542.925 384.178 542.509 384.419Z" fill="#4A0056"/>
<path d="M548.062 381.212C547.646 381.453 547.206 381.332 546.962 380.91C546.718 380.487 546.833 380.046 547.25 379.805C547.666 379.565 548.107 379.686 548.35 380.108C548.594 380.53 548.479 380.972 548.062 381.212Z" fill="#4A0056"/>
<path d="M548.941 389.147C546.997 390.269 544.38 389.904 542.826 388.175C542.444 387.833 542.559 387.391 542.894 387.01C543.229 386.629 543.67 386.75 544.052 387.092C545.061 388.198 546.74 388.541 548.129 387.74C549.517 386.938 550.059 385.312 549.606 383.885C549.501 383.383 549.697 383.082 550.114 382.842C550.612 382.742 550.913 382.943 551.157 383.365C551.877 385.575 550.885 388.024 548.941 389.147Z" fill="#4A0056"/>
</g>
<g opacity="0.05">
<path d="M107.051 27.4797C98.6218 22.5213 95.5204 18.6237 97.4972 15.263C97.7444 14.8429 98.1855 14.7254 98.6 14.9692C99.291 15.3757 99.9261 15.5608 100.45 15.3032C101.855 14.8107 102.65 12.8277 102.65 12.8277C105.697 7.64657 112.37 6.10549 117.759 9.27559C123.149 12.4457 125.044 19.0264 122.079 24.0676C119.113 29.1087 112.441 30.6498 107.051 27.4797ZM98.6879 16.7172C98.308 18.9441 101.38 22.259 107.875 26.0794C112.435 28.7618 118.226 27.4557 120.697 23.2547C123.168 19.0538 121.496 13.3583 116.936 10.6759C112.375 7.99351 106.585 9.29961 104.114 13.5006C104.114 13.5006 103.128 16.1249 101.061 16.7937C100.179 17.0287 99.4612 16.9836 98.6879 16.7172Z" fill="#4A0056"/>
<path d="M108.168 31.9062C109.694 32.804 111.669 32.278 112.579 30.7312C113.489 29.1845 112.989 27.2027 111.463 26.3049C109.936 25.407 107.961 25.9331 107.052 27.4798C106.142 29.0266 106.642 31.0083 108.168 31.9062Z" fill="#4A0056"/>
<path d="M99.8765 27.0292C101.403 27.9271 103.378 27.401 104.288 25.8543C105.197 24.3075 104.698 22.3258 103.171 21.4279C101.645 20.5301 99.6699 21.0561 98.7601 22.6029C97.8503 24.1496 98.3501 26.1314 99.8765 27.0292Z" fill="#4A0056"/>
<path d="M110.465 15.3519C110.051 15.1081 109.939 14.6654 110.186 14.2453C110.433 13.8252 110.874 13.7077 111.289 13.9516C111.703 14.1954 111.815 14.6381 111.568 15.0582C111.321 15.4783 110.88 15.5958 110.465 15.3519Z" fill="#4A0056"/>
<path d="M115.993 18.603C115.578 18.3592 115.467 17.9165 115.714 17.4964C115.961 17.0763 116.402 16.9588 116.816 17.2027C117.231 17.4465 117.343 17.8892 117.096 18.3093C116.848 18.7294 116.407 18.8469 115.993 18.603Z" fill="#4A0056"/>
<path d="M109.522 23.2789C107.588 22.1409 106.615 19.6838 107.354 17.4795C107.462 16.9782 107.904 16.8607 108.401 16.9645C108.897 17.0683 109.009 17.511 108.9 18.0123C108.435 19.4352 108.964 21.0657 110.346 21.8785C111.728 22.6914 113.41 22.3614 114.428 21.2637C114.813 20.9249 115.172 20.9475 115.586 21.1913C115.919 21.5752 115.892 21.9365 115.645 22.3566C114.077 24.0732 111.457 24.4168 109.522 23.2789Z" fill="#4A0056"/>
</g>
<path opacity="0.05" d="M26.0149 43.876C22.3421 42.0856 21.5555 37.6415 21.6059 37.4534C21.5222 37.0278 21.623 36.6516 21.6734 36.4635C22.0091 35.9487 22.9819 36.0078 23.5858 35.968C23.7703 36.0175 24.0052 35.8788 24.0052 35.8788C24.6091 35.839 25.0284 35.7498 25.3137 35.4231C25.7835 35.1458 25.8339 34.9577 25.8843 34.7696C26.0355 34.2054 25.7673 33.7304 25.2642 33.394C25.0797 33.3445 24.9456 33.107 24.7611 33.0576C24.5766 33.0081 24.3921 32.9587 24.1573 33.0974C23.5534 33.1371 23.134 33.2263 22.765 33.1275C22.5805 33.078 22.396 33.0286 22.396 33.0286C22.4464 32.8405 22.4968 32.6524 22.5472 32.4644C23.2861 30.4449 24.1257 28.0492 23.7909 26.3468C23.6739 25.3075 23.1879 24.1694 22.6515 23.2193C22.2492 22.5068 21.6625 21.7448 20.8408 21.1214C19.6672 19.5975 18.3757 19.2514 17.8223 19.1031C17.6378 19.0537 17.2688 18.9548 17.2688 18.9548C16.5308 18.7571 15.189 18.5991 13.7463 18.8173C12.9075 18.9957 12.0184 19.3622 11.1292 19.7287C10.1896 20.2833 9.38418 21.0754 8.57872 21.8676C7.43757 23.1745 6.96691 25.669 6.59704 27.7873C6.54664 27.9754 6.49624 28.1635 6.39545 28.5397C6.21095 28.4902 6.21096 28.4902 5.84197 28.3914C5.47298 28.2925 5.15439 28.0056 4.6513 27.6692C4.46681 27.6197 4.33271 27.3822 4.14822 27.3328C3.77923 27.2339 3.59474 27.1845 3.17535 27.2737C2.75597 27.3629 2.47068 27.6896 2.42028 27.8777C2.36988 28.0658 2.26909 28.442 2.48689 29.1051C2.62099 29.3426 2.93958 29.6295 3.44267 29.9659C3.62716 30.0154 3.57676 30.2035 3.76125 30.2529C4.26434 30.5893 4.95192 30.9751 5.16972 31.6382C5.30381 31.8757 5.01853 32.2025 4.73324 32.5292C4.68284 32.7173 3.87737 33.5094 2.65252 34.3907C1.94785 34.8067 1.24318 35.2226 0.354016 35.5891C-0.53515 35.9556 -1.55841 36.0846 -2.48088 35.8374C-2.84987 35.7386 -3.13515 36.0653 -3.23594 36.4415C-3.28634 36.6296 -3.28634 36.6296 -3.33674 36.8176C-3.25304 37.2432 -2.93445 37.5302 -2.66625 38.0052C-2.02907 38.5791 -1.157 39.0144 0.0840594 39.5485C0.0336627 39.7366 0.167757 39.9741 0.117361 40.1622C0.066964 40.3503 0.201065 40.5878 0.100271 40.964C0.0498744 41.1521 0.318065 41.6271 0.687052 41.726C0.871546 41.7754 1.05604 41.8248 1.47543 41.7356C1.84442 41.8345 2.44829 41.7947 3.00177 41.943C3.37076 42.0419 3.73975 42.1408 4.05834 42.4277C4.74592 42.8135 5.19861 43.338 5.78539 44.1C6.69077 45.1489 7.54574 46.386 9.39068 46.8803L9.57519 46.9297L9.75968 46.9792C11.6046 47.4735 12.9636 46.8297 14.2721 46.374C15.1613 46.0075 15.8155 45.7796 16.6039 45.7893C16.9729 45.8882 17.3923 45.7989 17.7613 45.8978C18.3148 46.0461 18.8682 46.1944 19.1868 46.4814C19.5558 46.5802 19.7403 46.6297 19.9248 46.6791C20.2938 46.778 20.7132 46.6888 20.814 46.3126C20.8644 46.1245 21.0993 45.9859 21.2001 45.6097C21.2505 45.4216 21.5357 45.0949 21.5357 45.0949C22.8776 45.2529 23.8505 45.3119 24.6892 45.1335C25.2931 45.0937 25.7629 44.8164 25.8637 44.4403C25.9141 44.2522 25.9141 44.2522 25.9645 44.0641C26.4676 44.4005 26.3839 43.9749 26.0149 43.876Z" fill="#4A0056"/>
<path opacity="0.05" d="M623.204 104.327C620.251 104.534 618.148 102.031 618.112 101.895C617.905 101.658 617.832 101.385 617.796 101.249C617.82 100.805 618.452 100.489 618.816 100.246C618.95 100.21 619.047 100.038 619.047 100.038C619.411 99.7942 619.642 99.5863 619.703 99.278C619.897 98.9339 619.86 98.7977 619.824 98.6614C619.714 98.2527 619.374 98.0518 618.937 98.023C618.803 98.0588 618.633 97.9584 618.499 97.9942C618.366 98.03 618.232 98.0658 618.135 98.2379C617.77 98.4816 617.54 98.6894 617.272 98.761C617.139 98.7968 617.005 98.8327 617.005 98.8327C616.969 98.6964 616.932 98.5602 616.896 98.4239C616.628 96.8895 616.287 95.0825 615.46 94.1358C615.01 93.5262 614.293 92.9883 613.613 92.5865C613.102 92.2852 612.458 92.0198 611.717 91.9263C610.429 91.3953 609.493 91.646 609.092 91.7534C608.959 91.7892 608.691 91.8609 608.691 91.8609C608.157 92.0041 607.258 92.391 606.432 93.0504C605.97 93.4661 605.545 94.0181 605.12 94.57C604.732 95.2582 604.513 96.0469 604.295 96.8355C604.052 98.0687 604.661 99.804 605.196 101.267C605.232 101.403 605.269 101.539 605.342 101.812C605.208 101.848 605.208 101.848 604.941 101.919C604.674 101.991 604.37 101.926 603.932 101.897C603.799 101.933 603.629 101.833 603.495 101.869C603.228 101.94 603.094 101.976 602.863 102.184C602.632 102.392 602.572 102.7 602.608 102.836C602.645 102.973 602.718 103.245 603.095 103.582C603.265 103.683 603.569 103.747 604.006 103.776C604.14 103.74 604.176 103.876 604.31 103.841C604.747 103.869 605.318 103.862 605.695 104.2C605.865 104.3 605.805 104.608 605.744 104.917C605.78 105.053 605.562 105.841 605.113 106.838C604.821 107.354 604.53 107.87 604.105 108.422C603.68 108.974 603.085 109.426 602.417 109.605C602.149 109.676 602.089 109.985 602.162 110.257C602.198 110.393 602.198 110.393 602.235 110.53C602.441 110.766 602.745 110.831 603.085 111.032C603.693 111.161 604.398 111.118 605.37 111.004C605.406 111.14 605.576 111.24 605.613 111.377C605.649 111.513 605.82 111.613 605.893 111.886C605.929 112.022 606.269 112.223 606.537 112.151C606.67 112.116 606.804 112.08 607.035 111.872C607.302 111.8 607.666 111.557 608.067 111.449C608.335 111.378 608.602 111.306 608.906 111.371C609.477 111.364 609.951 111.529 610.595 111.794C611.543 112.124 612.527 112.591 613.863 112.232L613.997 112.197L614.131 112.161C615.467 111.803 616.086 110.907 616.742 110.147C617.167 109.595 617.495 109.215 617.993 108.935C618.261 108.864 618.491 108.656 618.759 108.584C619.16 108.477 619.56 108.37 619.864 108.434C620.132 108.363 620.265 108.327 620.399 108.291C620.666 108.219 620.897 108.011 620.824 107.739C620.787 107.603 620.884 107.431 620.811 107.158C620.775 107.022 620.836 106.714 620.836 106.714C621.735 106.327 622.366 106.011 622.828 105.596C623.192 105.352 623.387 105.008 623.314 104.736C623.277 104.599 623.277 104.599 623.24 104.463C623.678 104.492 623.471 104.255 623.204 104.327Z" fill="#4A0056"/>
<g opacity="0.05">
<path fill-rule="evenodd" clip-rule="evenodd" d="M60.2485 356.643C62.274 349.084 70.5416 344.778 78.654 346.952C86.7663 349.126 91.7734 356.989 89.7479 364.548C87.7224 372.107 79.4548 376.413 71.3425 374.239C69.8675 373.844 68.4419 373.264 67.2501 372.55L61.5311 373.981L62.9144 368.819C60.2873 365.349 59.1123 360.884 60.2485 356.643ZM72.5882 360.74L75.1887 365.784L85.6229 359.293L77.3456 361.422L74.5607 356.329L64.1265 362.82L72.5882 360.74Z" fill="#4A0056"/>
</g>
<g opacity="0.05">
<path fill-rule="evenodd" clip-rule="evenodd" d="M230.376 10.1103C227.072 3.01603 230.642 -5.59497 238.255 -9.14063C245.868 -12.6863 254.757 -9.87728 258.061 -2.78304C261.365 4.31121 257.795 12.9222 250.181 16.4679C248.797 17.1125 247.332 17.5842 245.96 17.8022L242.497 22.5734L240.24 17.7286C235.998 16.7566 232.229 14.09 230.376 10.1103ZM242.464 5.32274L247.698 7.51775L251.524 -4.16034L246.548 2.78907L241.142 0.67465L237.316 12.3527L242.464 5.32274Z" fill="#4A0056"/>
</g>
<g opacity="0.05">
<path fill-rule="evenodd" clip-rule="evenodd" d="M644.519 281.94C642.015 275.752 645.433 268.573 652.074 265.886C658.714 263.199 666.163 265.98 668.667 272.168C671.171 278.356 667.753 285.535 661.112 288.222C659.905 288.711 658.637 289.048 657.458 289.174L654.299 293.087L652.589 288.861C649.018 287.847 645.924 285.411 644.519 281.94ZM655.027 278.39L659.389 280.489L663.159 270.709L658.616 276.411L654.104 274.373L650.333 284.154L655.027 278.39Z" fill="#4A0056"/>
</g>
<g opacity="0.05">
<path fill-rule="evenodd" clip-rule="evenodd" d="M7.35013 257.572L25.7758 246.934C27.6184 245.87 30.0126 246.536 31.0963 248.413L39.9627 263.77C41.0464 265.647 40.4255 268.053 38.5829 269.117L26.3549 276.177L23.8617 283.076C23.7927 283.344 23.6252 283.441 23.4576 283.537L23.1226 283.731C22.6891 283.753 22.3246 283.509 22.1275 283.168L20.1572 279.755C18.3146 280.819 15.9204 280.153 14.8368 278.276L5.97032 262.919C4.88664 261.042 5.50756 258.636 7.35013 257.572ZM15.724 272.076C16.0195 272.588 16.5516 272.736 17.0541 272.446L18.7292 271.479C20.0692 270.705 20.5521 268.834 19.764 267.469C18.9759 266.104 17.1137 265.586 15.7737 266.36C15.2712 266.65 14.7391 266.502 14.4436 265.99C14.148 265.478 14.286 264.944 14.7885 264.653L16.4636 263.686C16.9661 263.396 17.1041 262.862 16.8085 262.35C16.513 261.838 15.9809 261.69 15.4784 261.98L13.8034 262.947C12.4633 263.721 11.9804 265.592 12.7685 266.957C13.5566 268.322 15.4188 268.84 16.7588 268.066C17.2614 267.776 17.7934 267.924 18.0889 268.436C18.3845 268.948 18.2465 269.482 17.744 269.773L16.0689 270.74C15.5664 271.03 15.4284 271.564 15.724 272.076ZM32.1297 263.742L30.4546 264.709C29.9521 264.999 29.4201 264.851 29.1245 264.34C28.829 263.828 28.967 263.293 29.4695 263.003L31.1445 262.036C31.6471 261.746 31.785 261.211 31.4895 260.699C31.1939 260.187 30.6619 260.039 30.1594 260.329C28.8193 261.103 26.9572 260.586 26.169 259.22C25.3809 257.855 25.8639 255.984 27.2039 255.21L28.879 254.243C29.3815 253.953 29.9135 254.101 30.2091 254.613C30.5046 255.125 30.3666 255.659 29.8641 255.95L28.1891 256.917C27.6865 257.207 27.5486 257.741 27.8441 258.253C28.1397 258.765 28.6717 258.913 29.1742 258.623C30.5143 257.849 32.3764 258.367 33.1646 259.732C33.9527 261.097 33.4698 262.968 32.1297 263.742ZM25.7744 266.274C26.0699 266.786 26.602 266.934 27.1045 266.643C27.607 266.353 27.745 265.819 27.6169 265.21L23.6763 258.385C23.4793 258.043 22.9472 257.895 22.5137 257.918C22.0112 258.208 21.7747 258.572 21.8042 259.01L21.8829 261.468L19.7941 260.171C19.4296 259.926 18.7301 259.875 18.4936 260.239C18.2571 260.603 18.1191 261.138 18.3161 261.479L22.2567 268.305C22.5523 268.817 23.0843 268.964 23.5869 268.674C24.0894 268.384 24.2274 267.849 23.9318 267.338L22.06 264.096L22.326 264.169C22.9566 264.488 23.7941 264.004 23.8336 263.299L23.9026 263.032L25.7744 266.274Z" fill="#4A0056"/>
</g>
<g opacity="0.05">
<path fill-rule="evenodd" clip-rule="evenodd" d="M661.61 49.7254L678.047 59.215C679.69 60.164 680.244 62.3103 679.277 63.9847L671.368 77.6839C670.401 79.3583 668.266 79.9518 666.622 79.0028L655.714 72.7051L649.272 73.8565C649.035 73.9224 648.885 73.8361 648.736 73.7499L648.437 73.5773C648.226 73.2526 648.252 72.8619 648.428 72.5575L650.186 69.5132C648.542 68.5642 647.988 66.4179 648.955 64.7435L656.864 51.0443C657.831 49.3699 659.966 48.7764 661.61 49.7254ZM654.14 62.6636C653.877 63.1202 654 63.5972 654.448 63.856L655.942 64.7187C657.138 65.4088 658.799 64.9472 659.502 63.7295C660.205 62.5118 659.774 60.8424 658.579 60.1523C658.13 59.8934 658.007 59.4165 658.271 58.9598C658.535 58.5032 659.009 58.3713 659.458 58.6301L660.952 59.4928C661.4 59.7516 661.875 59.6197 662.138 59.1631C662.402 58.7064 662.279 58.2295 661.831 57.9707L660.336 57.108C659.141 56.4178 657.48 56.8794 656.777 58.0971C656.074 59.3149 656.505 60.9842 657.7 61.6744C658.148 61.9332 658.271 62.4102 658.008 62.8668C657.744 63.3234 657.269 63.4553 656.821 63.1965L655.327 62.3338C654.879 62.075 654.404 62.2069 654.14 62.6636ZM667.896 71.6202L666.402 70.7576C665.954 70.4987 665.83 70.0218 666.094 69.5651C666.358 69.1085 666.832 68.9766 667.281 69.2354L668.775 70.0981C669.223 70.3569 669.698 70.225 669.961 69.7684C670.225 69.3117 670.102 68.8348 669.654 68.576C668.458 67.8858 668.028 66.2164 668.731 64.9987C669.434 63.781 671.095 63.3194 672.29 64.0096L673.784 64.8723C674.233 65.1311 674.356 65.608 674.092 66.0647C673.828 66.5213 673.354 66.6532 672.906 66.3944L671.411 65.5317C670.963 65.2729 670.488 65.4048 670.225 65.8614C669.961 66.3181 670.084 66.795 670.533 67.0538C671.728 67.744 672.159 69.4134 671.456 70.6311C670.753 71.8488 669.091 72.3104 667.896 71.6202ZM663.105 67.8397C662.842 68.2964 662.965 68.7733 663.413 69.0322C663.861 69.291 664.336 69.1591 664.749 68.7887L668.264 62.7002C668.44 62.3957 668.317 61.9188 668.106 61.594C667.658 61.3352 667.271 61.3149 666.946 61.533L665.083 62.6898L665.153 60.4978C665.179 60.1071 664.907 59.5439 664.52 59.5235C664.133 59.5032 663.659 59.6351 663.483 59.9395L659.968 66.0281C659.704 66.4847 659.827 66.9617 660.275 67.2205C660.724 67.4793 661.198 67.3474 661.462 66.8908L663.132 63.9987L663.193 64.2372C663.228 64.8664 663.975 65.2977 664.538 65.0136L664.775 64.9477L663.105 67.8397Z" fill="#4A0056"/>
</g>
<g opacity="0.05">
<path d="M164.593 391.007L164.772 401.624L170.906 390.489L164.593 391.007Z" fill="#4D4D4D"/>
<path d="M168.214 366.358C167.952 366.286 167.622 366.477 167.291 366.668L148.299 391.034C148.065 391.392 148.093 391.823 148.286 392.158C148.48 392.493 148.838 392.733 149.266 392.709L176.558 390.353C176.723 390.257 176.723 390.257 176.888 390.162C177.053 390.066 177.219 389.971 177.122 389.803C177.191 389.54 177.259 389.278 177.231 388.847L168.932 366.838C168.835 366.67 168.642 366.335 168.214 366.358Z" fill="#4A0056"/>
<path d="M168.106 367.315L159.066 391.741L164.772 401.624L164.952 391.247L168.106 367.315Z" fill="#7B7B7B"/>
</g>
<g opacity="0.05">
<path d="M596.547 21.5228L587.919 25.5741L599.294 26.5017L596.547 21.5228Z" fill="#4D4D4D"/>
<path d="M618.063 15.423C618.026 15.182 617.748 14.9814 617.47 14.7809L590.532 8.19011C590.153 8.13039 589.811 8.31173 589.608 8.59333C589.404 8.87493 589.34 9.25678 589.516 9.5981L601.484 31.0796C601.623 31.1799 601.623 31.1799 601.762 31.2801C601.901 31.3804 602.039 31.4806 602.141 31.3398C602.382 31.2993 602.622 31.2588 602.964 31.0774L617.935 16.1867C618.036 16.0459 618.239 15.7643 618.063 15.423Z" fill="#4A0056"/>
<path d="M617.24 15.6854L593.913 17.267L587.919 25.5742L596.483 21.9046L617.24 15.6854Z" fill="#7B7B7B"/>
</g>
<path opacity="0.05" fill-rule="evenodd" clip-rule="evenodd" d="M617.344 370.946C614.443 365.921 616.232 359.246 621.257 356.344C626.282 353.443 632.957 355.232 635.858 360.257C638.607 365.018 636.088 377.757 635.752 379.008C635.641 379.425 635.264 379.995 635 380.148C634.735 380.301 634.054 380.342 633.637 380.23C632.385 379.894 620.093 375.707 617.344 370.946ZM630.569 363.311C631.834 365.502 631.083 368.304 628.892 369.569C626.701 370.834 623.899 370.083 622.634 367.892C621.369 365.701 622.12 362.899 624.311 361.634C626.502 360.369 629.304 361.12 630.569 363.311Z" fill="#4A0056"/>
<path opacity="0.05" d="M603.765 315.982C602.278 314.933 601.098 313.681 600.001 312.286C599.452 311.588 598.431 311.38 597.733 311.928L595.746 313.064C593.655 309.764 592.712 305.795 592.79 302.034L595.222 302.106C596.101 302.233 596.88 301.541 597.007 300.663C597.26 298.906 597.738 297.09 598.419 295.58C598.831 294.867 598.447 293.884 597.734 293.472L594.166 291.412C593.738 291.165 593.288 291.285 593.041 291.714C591.393 294.568 590.316 297.751 590.117 301.062C589.665 306.129 591.135 311.163 593.917 315.243C595.744 318.01 598.269 320.229 601.123 321.877C601.551 322.124 602.001 322.003 602.248 321.575L604.226 318.15C604.72 317.294 604.479 316.394 603.765 315.982Z" fill="#4A0056"/>
<path opacity="0.05" d="M14.9908 160.272C14.9333 158.452 15.223 156.756 15.6763 155.041C15.9029 154.183 15.4552 153.241 14.5973 153.015L12.4939 152.111C13.8711 148.455 16.4734 145.313 19.5235 143.112L20.9296 145.098C21.3572 145.875 22.3787 146.082 23.1563 145.654C24.7114 144.799 26.4502 144.088 28.0657 143.723C28.8835 143.623 29.4372 142.724 29.3367 141.907L28.8344 137.818C28.7741 137.327 28.4068 137.04 27.9161 137.1C24.645 137.502 21.4543 138.558 18.6912 140.392C14.3729 143.081 11.2369 147.285 9.65325 151.962C8.54296 155.087 8.29063 158.438 8.69252 161.709C8.75281 162.2 9.12011 162.487 9.61077 162.427L13.5361 161.944C14.5174 161.824 15.0912 161.089 14.9908 160.272Z" fill="#4A0056"/>
<g opacity="0.05">
<path d="M20.3517 348.682C19.8048 347.778 17.4432 344.724 10.8441 342.921C10.8441 342.921 3.17964 340.339 -1.59997 342.974C-4.30949 344.625 -5.9239 347.67 -7.07789 351.675C-8.23632 355.679 -10.3573 363.186 -3.96921 367.09L-3.96478 367.091L-4.80494 370.209C-4.80494 370.209 -5.18807 371.462 -4.46273 371.93C-3.58826 372.498 -2.76846 371.691 -1.57271 370.901C-0.919621 370.468 0.000837576 369.818 0.694781 369.321C5.32352 371.01 9.22996 371.03 9.67976 371.001C10.7249 370.933 16.3398 371.655 19.2368 364.356C22.2272 356.832 22.1923 351.552 20.3517 348.682ZM17.3108 363.242C14.8793 369.336 10.3773 368.558 9.49792 368.611C9.12087 368.635 5.69473 368.613 1.74263 367.256C1.74263 367.256 -2.27607 370.244 -3.47711 370.983C-3.66457 371.098 -3.85496 371.116 -3.96155 371.053C-4.10999 370.968 -4.10078 370.757 -4.02232 370.464C-3.90579 370.047 -2.60698 365.288 -2.60698 365.288C-2.61141 365.287 -2.61141 365.287 -2.60698 365.288C-8.01273 362.011 -5.95121 355.683 -4.9842 352.341C-4.01718 348.998 -2.67671 346.408 -0.393762 345.036C3.63854 342.849 10.1377 345.078 10.1377 345.078C15.7225 346.605 17.9291 349.084 18.3918 349.841C19.9526 352.247 19.8167 356.958 17.3108 363.242Z" fill="#4A0056"/>
<path d="M10.2198 356.125C10.5611 354.568 10.0315 353.564 8.63354 353.105" stroke="#4A0056" stroke-width="0.518873" stroke-linecap="round" stroke-linejoin="round"/>
<path d="M11.9549 357.313C12.3696 355.89 12.2861 354.587 11.7013 353.399C11.1165 352.211 10.0933 351.364 8.62427 350.851" stroke="#4A0056" stroke-width="0.518873" stroke-linecap="round" stroke-linejoin="round"/>
<path d="M13.704 358.643C14.3526 356.152 14.1662 354.009 13.1528 352.203C12.1382 350.402 10.5896 349.21 8.51343 348.639" stroke="#4A0056" stroke-width="0.518873" stroke-linecap="round" stroke-linejoin="round"/>
<path d="M6.65373 360.795C6.65373 360.795 7.16902 360.982 7.54681 360.69L8.29102 360.112C8.65426 359.821 9.35834 359.766 9.88969 360.302C10.184 360.605 10.7054 361.178 11.0147 361.584C11.3456 362.017 12.001 362.995 12.001 362.995C12.3131 363.462 12.2643 364.017 11.8399 364.501C11.8386 364.505 11.8329 364.509 11.8329 364.509C11.4084 364.958 10.8937 365.353 10.287 365.684C10.2813 365.687 10.2813 365.687 10.2756 365.691C9.78876 365.929 9.34494 366.024 8.95109 365.969C8.90425 365.966 8.84535 365.955 8.78008 365.933C8.61155 365.888 8.45369 365.82 8.30455 365.721L8.29623 365.699C7.75248 365.368 6.88946 364.669 5.50584 363.287C4.60589 362.388 3.8915 361.524 3.31334 360.702C3.00583 360.27 2.7019 359.79 2.40404 359.252C2.39448 359.235 2.38491 359.217 2.37534 359.2C2.36577 359.182 2.3562 359.165 2.34664 359.147C2.33707 359.13 2.3275 359.112 2.31793 359.095C2.30836 359.077 2.2988 359.06 2.28923 359.042C1.99706 358.501 1.75561 357.983 1.55602 357.486C1.171 356.546 0.821394 355.455 0.53367 354.188C0.092988 352.231 -0.0486309 351.092 -0.0470684 350.43L-0.0610716 350.411C-0.0682062 350.225 -0.0487316 350.046 0.00303214 349.871C0.0172798 349.8 0.037906 349.74 0.0592306 349.696C0.210692 349.308 0.510994 348.95 0.950021 348.625C0.955701 348.621 0.955701 348.621 0.961381 348.618C1.53619 348.229 2.11339 347.955 2.69868 347.793C2.70311 347.794 2.70879 347.791 2.70879 347.791C3.31819 347.645 3.79761 347.878 4.0245 348.397C4.02769 348.403 4.49813 349.486 4.68706 350.005C4.86447 350.496 5.07912 351.256 5.17586 351.675C5.34935 352.429 4.95145 353.045 4.5308 353.231L3.68452 353.622C3.25446 353.826 3.15184 354.386 3.15184 354.386C3.15184 354.386 3.08842 358.738 6.65373 360.795Z" fill="#4A0056"/>
</g>
<g opacity="0.05">
<path d="M58.3496 206.913C59.6051 201.896 55.4025 196.52 48.9827 194.914C42.5629 193.307 36.3233 196.069 35.0678 201.085C33.9468 205.564 37.1341 210.36 42.5488 212.476C42.9025 212.646 43.3968 212.933 43.4201 213.293C43.4562 213.601 43.3207 214.029 43.1905 214.323C43.1905 214.323 42.8588 215.083 42.7937 215.23C42.6699 215.498 42.2785 216.27 43.6522 216.098C45.0323 215.899 51.3131 213.99 54.4161 211.884C56.5758 210.494 57.85 208.909 58.3496 206.913Z" fill="#4A0056"/>
<path d="M44.9464 200.974L44.1206 200.768C43.9874 200.734 43.8552 200.81 43.8296 200.912L42.6125 205.775C42.5805 205.903 42.6679 206.006 42.801 206.04L43.6268 206.246C43.76 206.28 43.8922 206.204 43.9178 206.102L45.1349 201.239C45.1605 201.137 45.0796 201.008 44.9464 200.974Z" fill="white"/>
<path d="M50.5671 202.381L49.7413 202.174C49.6081 202.141 49.4759 202.217 49.4503 202.319L48.7265 205.211L47.1648 201.611C47.1648 201.611 47.1712 201.585 47.1446 201.579C47.1446 201.579 47.1446 201.579 47.1243 201.547C47.1243 201.547 47.1243 201.547 47.0977 201.54L46.2719 201.333C46.1387 201.3 46.0065 201.376 45.9809 201.478L44.7639 206.34C44.7318 206.468 44.8192 206.572 44.9524 206.605L45.7781 206.812C45.9113 206.845 46.0435 206.77 46.0691 206.667L46.793 203.775L48.3546 207.375C48.3749 207.407 48.3685 207.433 48.3951 207.44C48.3951 207.44 48.3951 207.44 48.4217 207.446C48.4217 207.446 48.4217 207.446 48.4484 207.453C48.475 207.46 48.475 207.46 48.5016 207.466L49.3274 207.673C49.4606 207.706 49.5928 207.631 49.6184 207.528L50.8355 202.666C50.7812 202.543 50.7003 202.414 50.5671 202.381Z" fill="white"/>
<path d="M41.9503 204.576L39.7394 204.022L40.7066 200.158C40.7386 200.03 40.6577 199.901 40.5245 199.868L39.6987 199.661C39.5655 199.627 39.4334 199.703 39.4013 199.831L38.1843 204.694C38.1715 204.745 38.1853 204.803 38.1991 204.861C38.246 204.9 38.2928 204.938 38.3461 204.952L41.596 205.765C41.7292 205.799 41.8347 205.716 41.8667 205.588L42.0653 204.795C42.1645 204.738 42.0835 204.609 41.9503 204.576Z" fill="white"/>
<path d="M54.7614 204.736C54.8946 204.77 55.0001 204.687 55.0322 204.559L55.2307 203.766C55.2628 203.638 55.1818 203.509 55.0753 203.482L51.8254 202.669C51.7721 202.655 51.7125 202.668 51.6528 202.68C51.6133 202.725 51.5739 202.769 51.5611 202.82L50.344 207.683C50.3312 207.734 50.345 207.792 50.3588 207.85C50.4057 207.889 50.4526 207.928 50.5058 207.941L53.7557 208.754C53.8889 208.788 53.9944 208.705 54.0265 208.577L54.225 207.784C54.2571 207.656 54.1761 207.527 54.0696 207.5L51.8586 206.947L52.0636 206.128L54.2746 206.681C54.4078 206.715 54.5133 206.632 54.5453 206.504L54.7439 205.711C54.7759 205.583 54.695 205.454 54.5884 205.427L52.3775 204.874L52.5825 204.055L54.7934 204.608L54.7614 204.736Z" fill="white"/>
</g>
<g opacity="0.05">
<path d="M505.62 1.22766C503.525 -3.49965 496.905 -5.1536 490.854 -2.4719C484.804 0.209787 481.584 6.22566 483.679 10.953C485.55 15.1738 491.012 16.9945 496.584 15.3331C496.967 15.2497 497.533 15.1719 497.773 15.4409C497.991 15.6617 498.148 16.0828 498.226 16.3945C498.226 16.3945 498.432 17.1978 498.471 17.3537C498.538 17.6412 498.704 18.4909 499.681 17.5097C500.647 16.5043 504.425 11.136 505.576 7.56681C506.424 5.14221 506.454 3.10894 505.62 1.22766Z" fill="#4A0056"/>
<path d="M491.4 4.7894L490.621 5.13435C490.496 5.18999 490.438 5.33097 490.481 5.42745L492.512 10.01C492.566 10.1306 492.698 10.1585 492.824 10.1029L493.602 9.7579C493.727 9.70227 493.785 9.56128 493.742 9.4648L491.711 4.88221C491.668 4.78573 491.525 4.73377 491.4 4.7894Z" fill="white"/>
<path d="M496.697 2.44148L495.918 2.78643C495.793 2.84207 495.735 2.98305 495.778 3.07953L496.986 5.80496L493.541 3.92701C493.541 3.92701 493.53 3.90289 493.505 3.91402C493.505 3.91402 493.505 3.91402 493.469 3.90103C493.469 3.90103 493.469 3.90103 493.444 3.91215L492.666 4.2571C492.54 4.31274 492.482 4.45372 492.525 4.5502L494.556 9.1328C494.61 9.25339 494.742 9.28124 494.868 9.2256L495.646 8.88065C495.772 8.82502 495.829 8.68403 495.786 8.58756L494.578 5.86212L498.024 7.74007C498.06 7.75306 498.071 7.77718 498.096 7.76605C498.096 7.76605 498.096 7.76606 498.121 7.75493C498.121 7.75493 498.121 7.75493 498.146 7.7438C498.171 7.73267 498.171 7.73267 498.196 7.72155L498.974 7.3766C499.1 7.32096 499.157 7.17998 499.115 7.0835L497.083 2.5009C496.965 2.43781 496.822 2.38584 496.697 2.44148Z" fill="white"/>
<path d="M491.253 9.47188L489.169 10.3955L487.555 6.7535C487.501 6.6329 487.358 6.58093 487.232 6.63657L486.454 6.98152C486.329 7.03716 486.271 7.17814 486.324 7.29874L488.356 11.8813C488.377 11.9296 488.424 11.9667 488.47 12.0038C488.531 12.0057 488.592 12.0075 488.642 11.9853L491.705 10.6277C491.83 10.5721 491.863 10.4422 491.809 10.3216L491.478 9.57395C491.521 9.46821 491.378 9.41625 491.253 9.47188Z" fill="white"/>
<path d="M501.452 1.71867C501.578 1.66303 501.611 1.53318 501.557 1.41258L501.226 0.664895C501.172 0.5443 501.029 0.492333 500.929 0.536843L497.866 1.89438C497.816 1.91663 497.776 1.96301 497.737 2.00938C497.733 2.06875 497.729 2.12811 497.751 2.17635L499.782 6.75895C499.803 6.80718 499.85 6.84429 499.896 6.88141C499.957 6.88327 500.018 6.88513 500.068 6.86288L503.131 5.50534C503.256 5.44971 503.289 5.31985 503.235 5.19925L502.904 4.45157C502.851 4.33097 502.707 4.27901 502.607 4.32351L500.523 5.24708L500.181 4.47528L502.265 3.55171C502.39 3.49607 502.423 3.36622 502.37 3.24562L502.038 2.49793C501.985 2.37734 501.842 2.32537 501.741 2.36988L499.657 3.29345L499.315 2.52165L501.399 1.59808L501.452 1.71867Z" fill="white"/>
</g>
<g opacity="0.05">
<path fill-rule="evenodd" clip-rule="evenodd" d="M66.7542 51.1172C72.0931 52.3406 75.46 57.4995 74.2443 62.8051L74.2443 62.8051C74.0995 63.4368 73.9259 64.1947 73.3998 64.7389C73.6364 65.4579 73.688 66.4004 73.4854 67.2847C72.7907 70.3164 69.6695 72.2604 66.6187 71.5613C65.6017 71.3283 64.7698 70.8718 64.0939 70.318C63.4294 70.2987 62.9209 70.1822 62.2854 70.0366L62.2853 70.0366C56.9464 68.8132 53.5796 63.6542 54.7953 58.3487C54.94 57.7171 55.2118 57.1146 55.4837 56.5121C55.1489 55.6376 55.1262 54.5688 55.3578 53.5582C56.0524 50.5265 59.1737 48.5825 62.2245 49.2816C63.3686 49.5437 64.2987 50.1557 65.0727 50.8649C65.6101 50.8551 66.2457 51.0007 66.7542 51.1172ZM66.1175 67.3249C67.0942 67.1498 67.8455 66.7901 68.4987 66.275C69.1519 65.7599 69.4527 65.0311 69.3721 64.2149C69.5169 63.5833 69.5055 63.0489 69.3671 62.4853C69.2286 61.9218 68.9341 61.4554 68.4835 61.0863L68.4835 61.0862C68.0329 60.7171 67.5823 60.3479 67.0047 59.9497C66.7472 59.8343 66.472 59.6908 66.1845 59.5409C65.7945 59.3377 65.3818 59.1225 64.9594 58.9492C64.6335 58.7245 64.3296 58.5895 64.0861 58.4813C63.8981 58.3978 63.7462 58.3303 63.648 58.2499C63.3937 58.1916 63.1685 58.007 62.9432 57.8225L62.9432 57.8224L62.9432 57.8224C62.7179 57.6379 62.4926 57.4533 62.3944 57.2978C62.1691 57.1133 62.1981 56.9869 62.2559 56.7343C62.3428 56.3553 62.6549 56.1609 63.0942 55.9957C63.5334 55.8304 64.1979 55.8497 64.8335 55.9954C65.5962 56.1701 66.0758 56.413 66.3992 56.753C66.7227 57.093 66.919 57.4039 67.0575 57.9675C67.2249 58.4047 67.4212 58.7156 67.5194 58.871L67.5194 58.871C67.7447 59.0556 67.97 59.2402 68.3513 59.3276C68.7327 59.4149 69.143 59.376 69.4551 59.1816C69.7672 58.9872 69.9522 58.7637 70.0391 58.3847C70.1259 58.0058 70.2127 57.6268 70.0453 57.1896C70.0156 56.8881 69.8313 56.6238 69.6184 56.3184C69.543 56.2103 69.4641 56.097 69.3871 55.9751C68.9365 55.6059 68.4859 55.2368 67.9082 54.8385C67.3016 54.5665 66.5678 54.2655 65.678 54.0616C64.6611 53.8285 63.6152 53.7219 62.7946 53.7997C61.8469 53.8485 61.0955 54.2082 60.5984 54.6261C60.1012 55.044 59.7023 55.6173 59.5286 56.3753C59.3549 57.1332 59.4644 57.8231 59.73 58.4158C59.9956 59.0084 60.5443 59.533 61.122 59.9313C61.6997 60.3296 62.5317 60.7861 63.4907 61.2718C64.2245 61.5729 64.8311 61.8448 65.1835 62.0585C65.5359 62.2722 65.8883 62.486 66.0847 62.7969C66.281 63.1078 66.3503 63.3895 66.2634 63.7685C66.1766 64.1475 65.8355 64.4682 65.2402 64.7306C64.6449 64.9931 63.9804 64.9738 63.2177 64.799C62.7092 64.6825 62.2297 64.4397 61.8773 64.226C61.652 64.0414 61.4556 63.7305 61.2593 63.4196L61.2593 63.4196C61.2383 63.3343 61.2084 63.2347 61.1757 63.126C61.1003 62.8757 61.0105 62.577 60.9824 62.2925C60.969 62.2382 60.9568 62.1793 60.9441 62.1182C60.8908 61.8618 60.8295 61.5671 60.6476 61.4181C60.4223 61.2335 60.197 61.0489 59.8156 60.9615C59.4343 60.8742 59.024 60.9131 58.7119 61.1075C58.3997 61.3019 58.2147 61.5254 58.1279 61.9044C57.9832 62.536 58.1216 63.0995 58.3583 63.8185C58.722 64.5666 59.1436 65.0621 59.6924 65.5867C60.4664 66.2959 61.5526 66.8107 62.9509 67.1311C64.0949 67.3932 65.1408 67.4999 66.1175 67.3249Z" fill="#4A0056"/>
</g>
<g opacity="0.05">
<path fill-rule="evenodd" clip-rule="evenodd" d="M397.261 1.97555C402.454 0.231769 408.018 2.87431 409.751 8.03416L409.751 8.03419C409.958 8.64845 410.205 9.38556 410.041 10.1244C410.618 10.6141 411.154 11.391 411.443 12.251C412.433 15.1995 410.786 18.4869 407.818 19.4834C406.829 19.8155 405.882 19.8605 405.016 19.741C404.439 20.0714 403.945 20.2375 403.327 20.4451L403.327 20.4451C398.134 22.1889 392.569 19.5464 390.836 14.3865C390.63 13.7722 390.548 13.1165 390.465 12.4607C389.723 11.8896 389.145 10.9898 388.815 10.007C387.825 7.05852 389.473 3.77107 392.44 2.77462C393.552 2.40095 394.665 2.43736 395.695 2.63815C396.149 2.34922 396.767 2.14163 397.261 1.97555ZM405.179 16.1317C405.921 15.4725 406.374 14.7735 406.662 13.9931C406.951 13.2128 406.827 12.4342 406.332 11.7801C406.125 11.1658 405.837 10.7159 405.425 10.3075C405.012 9.89916 404.518 9.65515 403.941 9.57552L403.941 9.57551C403.364 9.49588 402.787 9.41625 402.086 9.37814C401.806 9.4141 401.496 9.43542 401.173 9.45769C400.734 9.4879 400.27 9.51987 399.819 9.59254C399.424 9.57103 399.094 9.61453 398.83 9.64937C398.626 9.67629 398.461 9.69803 398.336 9.68068C398.088 9.76372 397.8 9.7239 397.511 9.68409L397.511 9.68409L397.511 9.68408C397.223 9.64427 396.934 9.60445 396.769 9.52312C396.481 9.4833 396.44 9.36045 396.357 9.11474C396.233 8.74618 396.398 8.41744 396.686 8.04718C396.975 7.67691 397.552 7.34646 398.17 7.13887C398.911 6.88976 399.447 6.84654 399.901 6.96769C400.354 7.08884 400.684 7.25151 401.096 7.65989C401.467 7.94541 401.797 8.10808 401.962 8.18942L401.962 8.18942C402.25 8.22923 402.539 8.26905 402.91 8.1445C403.281 8.01994 403.61 7.77253 403.775 7.44378C403.94 7.11504 403.981 6.82781 403.857 6.45925C403.733 6.09069 403.609 5.72213 403.238 5.4366C403.056 5.19505 402.761 5.06581 402.419 4.91643C402.299 4.86357 402.172 4.80818 402.043 4.74441C401.466 4.66477 400.889 4.58514 400.188 4.54703C399.529 4.63177 398.746 4.75802 397.88 5.04865C396.891 5.3808 395.944 5.83581 395.284 6.33063C394.502 6.86696 394.048 7.56597 393.843 8.18194C393.637 8.79791 393.596 9.49522 393.843 10.2323C394.091 10.9695 394.545 11.5007 395.08 11.8676C395.616 12.2344 396.358 12.3954 397.059 12.4335C397.76 12.4716 398.707 12.4267 399.779 12.3402C400.562 12.214 401.221 12.1292 401.634 12.1275C402.046 12.1258 402.458 12.1241 402.788 12.2868C403.117 12.4495 403.323 12.6537 403.447 13.0222C403.571 13.3908 403.448 13.8424 403.077 14.377C402.706 14.9117 402.129 15.2421 401.387 15.4912C400.893 15.6573 400.357 15.7005 399.945 15.7022C399.657 15.6624 399.327 15.4997 398.997 15.3371L398.997 15.3371C398.935 15.2752 398.857 15.206 398.772 15.1303C398.578 14.9562 398.345 14.7483 398.172 14.5203C398.133 14.481 398.092 14.4371 398.049 14.3916C397.869 14.2008 397.663 13.9814 397.43 13.9493C397.142 13.9094 396.853 13.8696 396.482 13.9942C396.112 14.1187 395.782 14.3661 395.617 14.6949C395.453 15.0236 395.411 15.3109 395.535 15.6794C395.741 16.2937 396.154 16.7021 396.731 17.1918C397.432 17.64 398.05 17.8425 398.792 18.0034C399.822 18.2042 401.018 18.0763 402.377 17.6196C403.49 17.2459 404.438 16.7909 405.179 16.1317Z" fill="#4A0056"/>
</g>
<path opacity="0.05" d="M595.965 221.405L597.684 221.011C597.684 221.011 598.2 220.892 598.293 220.512C598.426 220.302 598.309 219.791 598.309 219.791C598.309 219.791 597.8 217.576 598.753 216.999C599.706 216.421 601.457 218.53 603.067 219.236C604.255 219.681 605.075 219.313 605.075 219.313L608.684 218.485C608.684 218.485 610.536 217.88 609.364 216.714C609.325 216.544 608.574 215.64 605.909 214.279C603.205 212.748 603.456 213.049 605.517 208.63C606.727 206.021 607.102 204.5 606.774 203.858C606.484 203.386 605.32 203.833 605.32 203.833L601.195 204.78C601.195 204.78 600.851 204.859 600.718 205.069C600.586 205.279 600.492 205.659 600.492 205.659C600.492 205.659 600.196 207.52 599.688 209.251C598.502 212.752 597.853 213.08 597.47 212.989C596.666 212.635 596.524 211.233 596.329 210.381C595.625 207.314 595.867 206.003 594.413 205.978C593.858 205.926 593.515 206.005 592.483 206.242C590.936 206.597 589.733 206.874 589.124 207.372C588.647 207.661 588.421 208.251 588.593 208.212C588.937 208.133 589.491 208.185 589.953 208.617C590.414 209.049 590.727 210.412 590.727 210.412C590.727 210.412 591.72 213.95 591.111 214.449C590.673 214.908 589.657 214.424 587.485 212.053C586.312 210.888 585.233 209.342 585.233 209.342C585.233 209.342 584.983 209.04 584.772 208.91C584.389 208.818 584.046 208.897 584.046 208.897L580.092 209.805C580.092 209.805 579.577 209.923 579.311 210.343C579.178 210.553 579.468 211.024 579.468 211.024C579.468 211.024 584.205 217.469 588.464 220.258C592.434 222.575 595.965 221.405 595.965 221.405Z" fill="#4A0056"/>
<path opacity="0.05" d="M87.2394 304.914L88.9264 305.428C88.9264 305.428 89.4325 305.583 89.7032 305.3C89.9228 305.184 90.0757 304.682 90.0757 304.682C90.0757 304.682 90.738 302.508 91.8521 302.482C92.9662 302.456 93.4338 305.157 94.4777 306.572C95.2861 307.549 96.1805 307.639 96.1805 307.639L99.7232 308.718C99.7232 308.718 101.63 309.116 101.194 307.522C101.245 307.355 101.045 306.197 99.4119 303.689C97.8302 301.015 97.897 301.4 101.886 298.596C104.235 296.936 105.318 295.804 105.353 295.084C105.337 294.53 104.105 294.338 104.105 294.338L100.056 293.104C100.056 293.104 99.7188 293.001 99.4992 293.117C99.2795 293.233 99.0089 293.516 99.0089 293.516C99.0089 293.516 97.8246 294.983 96.5226 296.23C93.7497 298.675 93.024 298.636 92.7375 298.366C92.2156 297.659 92.7919 296.373 93.0467 295.537C93.9638 292.527 94.8265 291.511 93.5788 290.765C93.1237 290.444 92.7863 290.341 91.7741 290.032C90.2558 289.57 89.0749 289.21 88.2982 289.339C87.7411 289.352 87.2509 289.751 87.4196 289.802C87.757 289.905 88.2121 290.226 88.3967 290.831C88.5812 291.435 88.1736 292.773 88.1736 292.773C88.1736 292.773 87.2724 296.336 86.4956 296.464C85.8876 296.645 85.248 295.719 84.5449 292.581C84.109 290.986 83.9437 289.108 83.9437 289.108C83.9437 289.108 83.8769 288.722 83.7591 288.504C83.4727 288.234 83.1353 288.131 83.1353 288.131L79.2552 286.949C79.2552 286.949 78.7491 286.795 78.3098 287.026C78.0901 287.142 78.106 287.695 78.106 287.695C78.106 287.695 79.0026 295.643 81.3067 300.183C83.5949 304.169 87.2394 304.914 87.2394 304.914Z" fill="#4A0056"/>
<path opacity="0.05" d="M542.289 332.339L544.043 332.158C544.043 332.158 544.569 332.104 544.709 331.738C544.866 331.546 544.813 331.025 544.813 331.025C544.813 331.025 544.579 328.764 545.596 328.308C546.613 327.851 548.092 330.159 549.603 331.057C550.727 331.644 551.586 331.38 551.586 331.38L555.27 331C555.27 331 557.182 330.627 556.161 329.326C556.144 329.152 555.51 328.163 553.032 326.486C550.536 324.635 550.747 324.964 553.335 320.831C554.856 318.39 555.414 316.926 555.166 316.249C554.937 315.745 553.727 316.046 553.727 316.046L549.517 316.48C549.517 316.48 549.166 316.517 549.009 316.709C548.851 316.901 548.712 317.267 548.712 317.267C548.712 317.267 548.189 319.078 547.474 320.733C545.867 324.062 545.183 324.308 544.814 324.171C544.059 323.722 544.091 322.312 544.001 321.443C543.678 318.313 544.079 317.042 542.639 316.839C542.095 316.719 541.744 316.755 540.692 316.864C539.113 317.027 537.885 317.154 537.219 317.574C536.711 317.802 536.414 318.36 536.589 318.342C536.94 318.306 537.484 318.425 537.889 318.911C538.294 319.396 538.437 320.787 538.437 320.787C538.437 320.787 538.99 324.42 538.324 324.841C537.833 325.243 536.884 324.638 535.018 322.019C533.998 320.718 533.117 319.052 533.117 319.052C533.117 319.052 532.905 318.722 532.712 318.566C532.343 318.429 531.992 318.465 531.992 318.465L527.958 318.881C527.958 318.881 527.431 318.935 527.116 319.319C526.959 319.511 527.188 320.015 527.188 320.015C527.188 320.015 531.099 326.992 534.985 330.282C538.641 333.067 542.289 332.339 542.289 332.339Z" fill="#4A0056"/>
<path opacity="0.05" d="M470.778 404.102L472.464 403.586C472.464 403.586 472.97 403.431 473.037 403.045C473.154 402.826 473.001 402.325 473.001 402.325C473.001 402.325 472.335 400.152 473.245 399.508C474.154 398.864 476.051 400.843 477.707 401.433C478.924 401.792 479.716 401.366 479.716 401.366L483.257 400.282C483.257 400.282 485.061 399.547 483.808 398.468C483.757 398.301 482.944 397.453 480.189 396.285C477.383 394.951 477.654 395.233 479.395 390.679C480.416 387.989 480.681 386.446 480.308 385.829C479.986 385.379 478.857 385.907 478.857 385.907L474.809 387.146C474.809 387.146 474.472 387.25 474.355 387.468C474.237 387.687 474.171 388.073 474.171 388.073C474.171 388.073 474.008 389.951 473.625 391.713C472.691 395.29 472.068 395.664 471.68 395.6C470.852 395.305 470.611 393.916 470.355 393.08C469.434 390.072 469.582 388.747 468.13 388.825C467.573 388.813 467.236 388.916 466.224 389.226C464.706 389.691 463.526 390.052 462.954 390.593C462.499 390.915 462.315 391.519 462.484 391.468C462.821 391.365 463.378 391.377 463.869 391.775C464.36 392.173 464.769 393.51 464.769 393.51C464.769 393.51 466.012 396.969 465.44 397.51C465.037 397.999 463.989 397.588 461.652 395.379C460.4 394.3 459.214 392.835 459.214 392.835C459.214 392.835 458.943 392.552 458.723 392.436C458.334 392.372 457.997 392.476 457.997 392.476L454.119 393.663C454.119 393.663 453.613 393.818 453.378 394.255C453.26 394.474 453.582 394.924 453.582 394.924C453.582 394.924 458.767 401.015 463.214 403.493C467.339 405.521 470.778 404.102 470.778 404.102Z" fill="#4A0056"/>
<g opacity="0.05">
<path d="M659.19 154.79C656.907 154.364 654.78 154.552 652.823 155.675C650.843 156.811 649.658 158.494 649.307 160.849C648.448 160.527 647.675 160.215 646.88 159.956C646.607 159.862 646.272 159.819 645.999 159.888C645.111 160.135 644.24 160.434 643.214 160.763C643.555 160.086 643.811 159.475 644.144 158.912C644.391 158.501 644.385 158.24 644.035 157.849C641.791 155.338 641.317 152.275 642.868 149.604C644.302 147.136 646.628 145.996 649.466 145.797C653.34 145.521 657.111 147.67 658.622 150.974C659.171 152.172 659.382 153.424 659.19 154.79ZM649.026 151.387C649.171 150.865 648.819 150.281 648.264 150.128C647.7 149.972 647.131 150.287 646.981 150.827C646.829 151.376 647.16 151.926 647.726 152.073C648.3 152.23 648.878 151.918 649.026 151.387ZM654.685 151.676C654.124 151.551 653.546 151.901 653.429 152.43C653.306 152.977 653.67 153.516 654.238 153.653C654.818 153.783 655.35 153.46 655.485 152.897C655.607 152.35 655.256 151.804 654.685 151.676Z" fill="#4A0056"/>
<path d="M660.956 169.71C660.313 169.229 659.772 168.608 659.091 168.367C658.409 168.126 657.588 168.341 656.844 168.238C654.573 167.921 652.733 166.843 651.457 164.979C649.021 161.424 650.506 157.229 654.657 155.8C658.346 154.528 662.879 156.342 664.451 159.718C665.822 162.662 664.796 165.891 661.9 167.392C661.056 167.823 660.684 168.262 660.941 169.159C660.99 169.325 660.953 169.518 660.956 169.71ZM654.67 160.078C655.127 160.188 655.583 159.933 655.707 159.502C655.837 159.043 655.549 158.561 655.074 158.446C654.599 158.331 654.113 158.627 654.022 159.086C653.936 159.526 654.223 159.97 654.67 160.078ZM660.311 159.709C659.873 159.604 659.408 159.856 659.284 160.288C659.154 160.746 659.435 161.217 659.901 161.33C660.357 161.44 660.802 161.191 660.918 160.749C661.056 160.302 660.777 159.822 660.311 159.709Z" fill="#4A0056"/>
</g>
<g opacity="0.05">
<path d="M132.839 59.807C130.57 60.302 128.684 61.3019 127.317 63.0967C125.934 64.9131 125.496 66.9246 126.088 69.2311C125.171 69.2678 124.338 69.2814 123.504 69.3518C123.216 69.3707 122.891 69.4618 122.666 69.6311C121.944 70.2037 121.258 70.8177 120.44 71.5194C120.491 70.7636 120.49 70.1015 120.578 69.4531C120.645 68.9783 120.538 68.7403 120.064 68.5153C117.021 67.0744 115.393 64.4362 115.785 61.3725C116.146 58.5408 117.847 56.5872 120.385 55.3006C123.846 53.5409 128.156 54.055 130.832 56.5119C131.804 57.4029 132.485 58.4741 132.839 59.807ZM122.151 60.6222C122.082 60.0847 121.531 59.6831 120.96 59.7577C120.38 59.8338 119.978 60.3445 120.05 60.9005C120.123 61.4657 120.642 61.8443 121.22 61.7589C121.81 61.6812 122.221 61.169 122.151 60.6222ZM127.478 58.6892C126.912 58.7915 126.516 59.339 126.613 59.8719C126.713 60.4232 127.257 60.7787 127.834 60.6841C128.419 60.5788 128.784 60.0744 128.69 59.503C128.59 58.9517 128.054 58.5854 127.478 58.6892Z" fill="#4A0056"/>
<path d="M140.265 72.8684C139.485 72.6745 138.746 72.3131 138.024 72.3557C137.303 72.3983 136.63 72.9155 135.904 73.1101C133.689 73.7004 131.574 73.4225 129.674 72.2011C126.047 69.8717 125.785 65.4295 129.055 62.4996C131.96 59.8943 136.841 59.8039 139.602 62.3036C142.009 64.4828 142.319 67.8573 140.234 70.366C139.624 71.0905 139.451 71.6392 140.037 72.3664C140.146 72.4999 140.187 72.6918 140.265 72.8684ZM130.73 66.4357C131.193 66.3597 131.514 65.9476 131.461 65.5021C131.403 65.0291 130.95 64.6964 130.467 64.7755C129.985 64.8546 129.653 65.316 129.747 65.7736C129.838 66.2128 130.276 66.5102 130.73 66.4357ZM135.784 63.904C135.339 63.9769 135.009 64.3906 135.062 64.836C135.121 65.3091 135.562 65.6341 136.035 65.5565C136.499 65.4806 136.812 65.0791 136.747 64.6261C136.7 64.1607 136.257 63.8265 135.784 63.904Z" fill="#4A0056"/>
</g>
<g opacity="0.05">
<path d="M172.022 318.516C169.92 317.529 167.815 317.175 165.638 317.768C163.436 318.369 161.865 319.699 160.931 321.89C160.181 321.362 159.512 320.865 158.807 320.414C158.567 320.254 158.254 320.129 157.972 320.126C157.051 320.141 156.132 320.211 155.057 320.271C155.557 319.702 155.958 319.176 156.423 318.714C156.765 318.379 156.825 318.125 156.586 317.658C155.046 314.663 155.359 311.579 157.534 309.385C159.543 307.358 162.081 306.841 164.878 307.364C168.696 308.073 171.804 311.103 172.434 314.68C172.663 315.979 172.552 317.243 172.022 318.516ZM163.043 312.662C163.316 312.194 163.122 311.54 162.624 311.252C162.117 310.959 161.487 311.12 161.206 311.605C160.92 312.098 161.102 312.714 161.613 312.998C162.128 313.295 162.766 313.139 163.043 312.662ZM168.447 314.368C167.936 314.105 167.288 314.299 167.041 314.781C166.785 315.279 167.001 315.892 167.516 316.168C168.045 316.441 168.641 316.262 168.914 315.751C169.17 315.253 168.967 314.636 168.447 314.368Z" fill="#4A0056"/>
<path d="M169.971 333.401C169.47 332.772 169.103 332.036 168.505 331.631C167.906 331.226 167.057 331.227 166.363 330.94C164.246 330.061 162.736 328.554 161.971 326.429C160.509 322.374 163.004 318.689 167.381 318.352C171.271 318.051 175.201 320.948 175.871 324.612C176.456 327.805 174.65 330.673 171.469 331.395C170.544 331.599 170.073 331.93 170.096 332.863C170.101 333.036 170.017 333.213 169.971 333.401ZM166.316 322.495C166.73 322.717 167.236 322.585 167.464 322.198C167.706 321.788 167.549 321.248 167.118 321.017C166.686 320.787 166.142 320.951 165.939 321.371C165.744 321.776 165.91 322.278 166.316 322.495ZM171.868 323.56C171.47 323.347 170.956 323.474 170.728 323.861C170.486 324.271 170.639 324.798 171.062 325.024C171.476 325.246 171.969 325.118 172.193 324.719C172.439 324.321 172.29 323.786 171.868 323.56Z" fill="#4A0056"/>
</g>
<g opacity="0.05">
<path d="M312.795 395.991C310.687 396.968 309.064 398.355 308.121 400.404C307.167 402.478 307.178 404.537 308.258 406.659C307.371 406.894 306.561 407.089 305.762 407.339C305.485 407.42 305.188 407.58 305.005 407.794C304.425 408.51 303.889 409.259 303.244 410.122C303.129 409.373 302.983 408.727 302.928 408.075C302.891 407.597 302.734 407.388 302.223 407.272C298.938 406.528 296.776 404.308 296.491 401.232C296.227 398.39 297.461 396.113 299.658 394.304C302.653 391.833 306.972 391.397 310.118 393.212C311.261 393.87 312.158 394.767 312.795 395.991ZM302.541 399.114C302.356 398.604 301.731 398.332 301.19 398.529C300.64 398.73 300.359 399.316 300.55 399.843C300.745 400.379 301.334 400.635 301.88 400.426C302.438 400.222 302.728 399.632 302.541 399.114ZM307.319 396.067C306.789 396.29 306.521 396.911 306.732 397.41C306.95 397.926 307.558 398.155 308.101 397.937C308.649 397.706 308.895 397.135 308.679 396.598C308.461 396.081 307.858 395.84 307.319 396.067Z" fill="#4A0056"/>
<path d="M322.886 407.122C322.083 407.102 321.283 406.911 320.588 407.109C319.893 407.308 319.349 407.959 318.683 408.307C316.649 409.366 314.525 409.555 312.404 408.777C308.357 407.293 307.135 403.014 309.687 399.443C311.955 396.267 316.7 395.116 319.938 396.955C322.762 398.558 323.8 401.784 322.311 404.686C321.873 405.526 321.825 406.099 322.555 406.681C322.69 406.788 322.772 406.966 322.886 407.122ZM312.179 402.92C312.615 402.745 312.839 402.272 312.69 401.849C312.53 401.4 312.015 401.174 311.562 401.357C311.108 401.539 310.884 402.061 311.076 402.488C311.261 402.896 311.752 403.091 312.179 402.92ZM316.561 399.348C316.143 399.516 315.91 399.992 316.06 400.415C316.219 400.864 316.721 401.085 317.166 400.906C317.602 400.731 317.82 400.271 317.659 399.843C317.511 399.399 317.006 399.17 316.561 399.348Z" fill="#4A0056"/>
</g>
</g>
<defs>
<clipPath id="clip0_423_130">
<rect width="672" height="403" rx="12" fill="white"/>
</clipPath>
</defs>
</svg>
