<svg width="704" height="478" viewBox="0 0 704 478" fill="none" xmlns="http://www.w3.org/2000/svg">
<g clip-path="url(#clip0_423_269)">
<rect width="704" height="478" rx="12" fill="white"/>
<g opacity="0.05">
<path d="M554.056 455.902C545.586 460.792 540.666 461.569 538.717 458.192C538.473 457.77 538.588 457.328 539.005 457.088C539.699 456.687 540.173 456.226 540.207 455.643C540.472 454.177 539.138 452.509 539.138 452.509C536.133 447.303 538.081 440.738 543.496 437.611C548.911 434.485 555.571 436.08 558.495 441.145C561.419 446.21 559.471 452.775 554.056 455.902ZM540.569 457.873C542.319 459.301 546.718 458.262 553.244 454.495C557.825 451.849 559.543 446.168 557.107 441.947C554.67 437.726 548.89 436.373 544.308 439.018C539.726 441.664 538.008 447.345 540.445 451.566C540.445 451.566 542.243 453.718 541.805 455.846C541.575 456.729 541.182 457.331 540.569 457.873Z" fill="#4A0056"/>
<path d="M558.458 457.112C559.991 456.227 560.507 454.249 559.61 452.695C558.713 451.141 556.742 450.599 555.209 451.484C553.675 452.37 553.159 454.347 554.056 455.902C554.953 457.456 556.924 457.998 558.458 457.112Z" fill="#4A0056"/>
<path d="M550.127 461.922C551.661 461.037 552.176 459.059 551.279 457.505C550.382 455.951 548.411 455.409 546.878 456.294C545.344 457.18 544.828 459.157 545.725 460.711C546.623 462.265 548.593 462.807 550.127 461.922Z" fill="#4A0056"/>
<path d="M545.187 446.953C544.77 447.193 544.33 447.072 544.087 446.65C543.843 446.228 543.958 445.786 544.375 445.546C544.791 445.305 545.231 445.427 545.475 445.849C545.719 446.271 545.603 446.712 545.187 446.953Z" fill="#4A0056"/>
<path d="M550.74 443.746C550.324 443.987 549.884 443.866 549.64 443.444C549.396 443.022 549.512 442.58 549.928 442.339C550.345 442.099 550.785 442.22 551.028 442.642C551.272 443.064 551.157 443.506 550.74 443.746Z" fill="#4A0056"/>
<path d="M551.619 451.681C549.675 452.803 547.058 452.438 545.504 450.709C545.122 450.367 545.237 449.925 545.572 449.544C545.908 449.163 546.348 449.284 546.73 449.626C547.739 450.732 549.418 451.076 550.807 450.274C552.195 449.472 552.737 447.846 552.284 446.42C552.179 445.917 552.376 445.616 552.792 445.376C553.29 445.276 553.591 445.477 553.835 445.899C554.556 448.11 553.563 450.559 551.619 451.681Z" fill="#4A0056"/>
</g>
<g opacity="0.05">
<path d="M107.051 27.4797C98.6218 22.5213 95.5204 18.6237 97.4972 15.263C97.7444 14.8429 98.1855 14.7254 98.6 14.9692C99.291 15.3757 99.9261 15.5608 100.45 15.3032C101.855 14.8107 102.65 12.8277 102.65 12.8277C105.697 7.64657 112.37 6.10549 117.759 9.27559C123.149 12.4457 125.044 19.0264 122.079 24.0676C119.113 29.1087 112.441 30.6498 107.051 27.4797ZM98.6879 16.7172C98.308 18.9441 101.38 22.259 107.875 26.0794C112.435 28.7618 118.226 27.4557 120.697 23.2547C123.168 19.0538 121.496 13.3583 116.936 10.6759C112.375 7.99351 106.585 9.29961 104.114 13.5006C104.114 13.5006 103.128 16.1249 101.061 16.7937C100.179 17.0287 99.4612 16.9836 98.6879 16.7172Z" fill="#4A0056"/>
<path d="M108.168 31.9062C109.694 32.804 111.669 32.278 112.579 30.7312C113.489 29.1845 112.989 27.2027 111.463 26.3049C109.936 25.407 107.961 25.9331 107.052 27.4798C106.142 29.0266 106.642 31.0083 108.168 31.9062Z" fill="#4A0056"/>
<path d="M99.8765 27.029C101.403 27.9268 103.378 27.4008 104.288 25.854C105.197 24.3073 104.698 22.3255 103.171 21.4277C101.645 20.5299 99.6699 21.0559 98.7601 22.6026C97.8503 24.1494 98.3501 26.1311 99.8765 27.029Z" fill="#4A0056"/>
<path d="M110.465 15.3519C110.051 15.1081 109.939 14.6654 110.186 14.2453C110.433 13.8252 110.874 13.7077 111.289 13.9516C111.703 14.1954 111.815 14.6381 111.568 15.0582C111.321 15.4783 110.88 15.5958 110.465 15.3519Z" fill="#4A0056"/>
<path d="M115.993 18.6031C115.578 18.3593 115.467 17.9166 115.714 17.4965C115.961 17.0764 116.402 16.959 116.816 17.2028C117.231 17.4467 117.343 17.8893 117.096 18.3094C116.848 18.7295 116.407 18.847 115.993 18.6031Z" fill="#4A0056"/>
<path d="M109.522 23.2789C107.588 22.1409 106.615 19.6838 107.354 17.4795C107.462 16.9782 107.904 16.8607 108.401 16.9645C108.897 17.0683 109.009 17.511 108.9 18.0123C108.435 19.4352 108.964 21.0657 110.346 21.8785C111.728 22.6914 113.41 22.3614 114.428 21.2637C114.813 20.9249 115.172 20.9475 115.586 21.1913C115.919 21.5752 115.892 21.9365 115.645 22.3566C114.077 24.0732 111.457 24.4168 109.522 23.2789Z" fill="#4A0056"/>
</g>
<path opacity="0.05" d="M26.0149 43.876C22.3421 42.0856 21.5555 37.6415 21.6059 37.4534C21.5222 37.0278 21.623 36.6516 21.6734 36.4635C22.0091 35.9487 22.9819 36.0078 23.5858 35.968C23.7703 36.0175 24.0052 35.8788 24.0052 35.8788C24.6091 35.839 25.0284 35.7498 25.3137 35.4231C25.7835 35.1458 25.8339 34.9577 25.8843 34.7696C26.0355 34.2054 25.7673 33.7304 25.2642 33.394C25.0797 33.3445 24.9456 33.107 24.7611 33.0576C24.5766 33.0081 24.3921 32.9587 24.1573 33.0974C23.5534 33.1371 23.134 33.2263 22.765 33.1275C22.5805 33.078 22.396 33.0286 22.396 33.0286C22.4464 32.8405 22.4968 32.6524 22.5472 32.4644C23.2861 30.4449 24.1257 28.0492 23.7909 26.3468C23.6739 25.3075 23.1879 24.1694 22.6515 23.2193C22.2492 22.5068 21.6625 21.7448 20.8408 21.1214C19.6672 19.5975 18.3757 19.2514 17.8223 19.1031C17.6378 19.0537 17.2688 18.9548 17.2688 18.9548C16.5308 18.7571 15.189 18.5991 13.7463 18.8173C12.9075 18.9957 12.0184 19.3622 11.1292 19.7287C10.1896 20.2833 9.38418 21.0754 8.57872 21.8676C7.43757 23.1745 6.96691 25.669 6.59704 27.7873C6.54664 27.9754 6.49624 28.1635 6.39545 28.5397C6.21095 28.4902 6.21096 28.4902 5.84197 28.3914C5.47298 28.2925 5.15439 28.0056 4.6513 27.6692C4.46681 27.6197 4.33271 27.3822 4.14822 27.3328C3.77923 27.2339 3.59474 27.1845 3.17535 27.2737C2.75597 27.3629 2.47068 27.6896 2.42028 27.8777C2.36988 28.0658 2.26909 28.442 2.48689 29.1051C2.62099 29.3426 2.93958 29.6295 3.44267 29.9659C3.62716 30.0154 3.57676 30.2035 3.76125 30.2529C4.26434 30.5893 4.95192 30.9751 5.16972 31.6382C5.30381 31.8757 5.01853 32.2025 4.73324 32.5292C4.68284 32.7173 3.87737 33.5094 2.65252 34.3907C1.94785 34.8067 1.24318 35.2226 0.354016 35.5891C-0.53515 35.9556 -1.55841 36.0846 -2.48088 35.8374C-2.84987 35.7386 -3.13515 36.0653 -3.23594 36.4415C-3.28634 36.6296 -3.28634 36.6296 -3.33674 36.8176C-3.25304 37.2432 -2.93445 37.5302 -2.66625 38.0052C-2.02907 38.5791 -1.157 39.0144 0.0840594 39.5485C0.0336627 39.7366 0.167757 39.9741 0.117361 40.1622C0.066964 40.3503 0.201065 40.5878 0.100271 40.964C0.0498744 41.1521 0.318065 41.6271 0.687052 41.726C0.871546 41.7754 1.05604 41.8248 1.47543 41.7356C1.84442 41.8345 2.44829 41.7947 3.00177 41.943C3.37076 42.0419 3.73975 42.1408 4.05834 42.4277C4.74592 42.8135 5.19861 43.338 5.78539 44.1C6.69077 45.1489 7.54574 46.386 9.39068 46.8803L9.57519 46.9297L9.75968 46.9792C11.6046 47.4735 12.9636 46.8297 14.2721 46.374C15.1613 46.0075 15.8155 45.7796 16.6039 45.7893C16.9729 45.8882 17.3923 45.7989 17.7613 45.8978C18.3148 46.0461 18.8682 46.1944 19.1868 46.4814C19.5558 46.5802 19.7403 46.6297 19.9248 46.6791C20.2938 46.778 20.7132 46.6888 20.814 46.3126C20.8644 46.1245 21.0993 45.9859 21.2001 45.6097C21.2505 45.4216 21.5357 45.0949 21.5357 45.0949C22.8776 45.2529 23.8505 45.3119 24.6892 45.1335C25.2931 45.0937 25.7629 44.8164 25.8637 44.4403C25.9141 44.2522 25.9141 44.2522 25.9645 44.0641C26.4676 44.4005 26.3839 43.9749 26.0149 43.876Z" fill="#4A0056"/>
<path opacity="0.05" d="M647.204 104.327C644.251 104.534 642.148 102.031 642.112 101.895C641.905 101.658 641.832 101.385 641.796 101.249C641.82 100.805 642.452 100.489 642.816 100.246C642.95 100.21 643.047 100.038 643.047 100.038C643.411 99.7942 643.642 99.5863 643.703 99.278C643.897 98.9339 643.86 98.7977 643.824 98.6614C643.714 98.2527 643.374 98.0518 642.937 98.023C642.803 98.0588 642.633 97.9584 642.499 97.9942C642.366 98.03 642.232 98.0658 642.135 98.2379C641.77 98.4816 641.54 98.6894 641.272 98.761C641.139 98.7968 641.005 98.8327 641.005 98.8327C640.969 98.6964 640.932 98.5602 640.896 98.4239C640.628 96.8895 640.287 95.0825 639.46 94.1358C639.01 93.5262 638.293 92.9883 637.613 92.5865C637.102 92.2852 636.458 92.0198 635.717 91.9263C634.429 91.3953 633.493 91.646 633.092 91.7534C632.959 91.7892 632.691 91.8609 632.691 91.8609C632.157 92.0041 631.258 92.391 630.432 93.0504C629.97 93.4661 629.545 94.0181 629.12 94.57C628.732 95.2582 628.513 96.0469 628.295 96.8355C628.052 98.0687 628.661 99.804 629.196 101.267C629.232 101.403 629.269 101.539 629.342 101.812C629.208 101.848 629.208 101.848 628.941 101.919C628.674 101.991 628.37 101.926 627.932 101.897C627.799 101.933 627.629 101.833 627.495 101.869C627.228 101.94 627.094 101.976 626.863 102.184C626.632 102.392 626.572 102.7 626.608 102.836C626.645 102.973 626.718 103.245 627.095 103.582C627.265 103.683 627.569 103.747 628.006 103.776C628.14 103.74 628.176 103.876 628.31 103.841C628.747 103.869 629.318 103.862 629.695 104.2C629.865 104.3 629.805 104.608 629.744 104.917C629.78 105.053 629.562 105.841 629.113 106.838C628.821 107.354 628.53 107.87 628.105 108.422C627.68 108.974 627.085 109.426 626.417 109.605C626.149 109.676 626.089 109.985 626.162 110.257C626.198 110.393 626.198 110.393 626.235 110.53C626.441 110.766 626.745 110.831 627.085 111.032C627.693 111.161 628.398 111.118 629.37 111.004C629.406 111.14 629.576 111.24 629.613 111.377C629.649 111.513 629.82 111.613 629.893 111.886C629.929 112.022 630.269 112.223 630.537 112.151C630.67 112.116 630.804 112.08 631.035 111.872C631.302 111.8 631.666 111.557 632.067 111.449C632.335 111.378 632.602 111.306 632.906 111.371C633.477 111.364 633.951 111.529 634.595 111.794C635.543 112.124 636.527 112.591 637.863 112.232L637.997 112.197L638.131 112.161C639.467 111.803 640.086 110.907 640.742 110.147C641.167 109.595 641.495 109.215 641.993 108.935C642.261 108.864 642.491 108.656 642.759 108.584C643.16 108.477 643.56 108.37 643.864 108.434C644.132 108.363 644.265 108.327 644.399 108.291C644.666 108.219 644.897 108.011 644.824 107.739C644.787 107.603 644.884 107.431 644.811 107.158C644.775 107.022 644.836 106.714 644.836 106.714C645.735 106.327 646.366 106.011 646.828 105.596C647.192 105.352 647.387 105.008 647.314 104.736C647.277 104.599 647.277 104.599 647.24 104.463C647.678 104.492 647.471 104.255 647.204 104.327Z" fill="#4A0056"/>
<g opacity="0.05">
<path fill-rule="evenodd" clip-rule="evenodd" d="M23.2485 303.643C25.274 296.084 33.5416 291.778 41.654 293.952C49.7663 296.126 54.7734 303.989 52.7479 311.548C50.7224 319.107 42.4548 323.413 34.3425 321.239C32.8675 320.844 31.4419 320.264 30.2501 319.55L24.5311 320.981L25.9144 315.819C23.2873 312.349 22.1123 307.884 23.2485 303.643ZM35.5882 307.74L38.1887 312.784L48.6229 306.293L40.3456 308.422L37.5607 303.329L27.1265 309.82L35.5882 307.74Z" fill="#4A0056"/>
</g>
<g opacity="0.05">
<path fill-rule="evenodd" clip-rule="evenodd" d="M230.376 10.1104C227.072 3.01616 230.642 -5.59484 238.255 -9.14051C245.868 -12.6862 254.757 -9.87716 258.061 -2.78291C261.365 4.31133 257.795 12.9223 250.181 16.468C248.797 17.1127 247.332 17.5843 245.96 17.8023L242.497 22.5735L240.24 17.7287C235.998 16.7567 232.229 14.0901 230.376 10.1104ZM242.464 5.32286L247.698 7.51787L251.524 -4.16022L246.548 2.78919L241.142 0.674772L237.316 12.3529L242.464 5.32286Z" fill="#4A0056"/>
</g>
<g opacity="0.05">
<path fill-rule="evenodd" clip-rule="evenodd" d="M668.519 281.94C666.015 275.752 669.433 268.573 676.074 265.886C682.714 263.199 690.163 265.98 692.667 272.168C695.171 278.356 691.753 285.535 685.112 288.222C683.905 288.711 682.637 289.048 681.458 289.174L678.299 293.087L676.589 288.861C673.018 287.847 669.924 285.411 668.519 281.94ZM679.027 278.39L683.389 280.489L687.159 270.709L682.616 276.411L678.104 274.373L674.333 284.154L679.027 278.39Z" fill="#4A0056"/>
</g>
<g opacity="0.05">
<path fill-rule="evenodd" clip-rule="evenodd" d="M7.35013 257.572L25.7758 246.934C27.6184 245.87 30.0126 246.536 31.0963 248.413L39.9627 263.77C41.0464 265.647 40.4255 268.053 38.5829 269.117L26.3549 276.177L23.8617 283.076C23.7927 283.344 23.6252 283.441 23.4576 283.537L23.1226 283.731C22.6891 283.753 22.3246 283.509 22.1275 283.168L20.1572 279.755C18.3146 280.819 15.9204 280.153 14.8368 278.276L5.97032 262.919C4.88664 261.042 5.50756 258.636 7.35013 257.572ZM15.724 272.076C16.0195 272.588 16.5516 272.736 17.0541 272.446L18.7292 271.479C20.0692 270.705 20.5521 268.834 19.764 267.469C18.9759 266.104 17.1137 265.586 15.7737 266.36C15.2712 266.65 14.7391 266.502 14.4436 265.99C14.148 265.478 14.286 264.944 14.7885 264.653L16.4636 263.686C16.9661 263.396 17.1041 262.862 16.8085 262.35C16.513 261.838 15.9809 261.69 15.4784 261.98L13.8034 262.947C12.4633 263.721 11.9804 265.592 12.7685 266.957C13.5566 268.322 15.4188 268.84 16.7588 268.066C17.2614 267.776 17.7934 267.924 18.0889 268.436C18.3845 268.948 18.2465 269.482 17.744 269.773L16.0689 270.74C15.5664 271.03 15.4284 271.564 15.724 272.076ZM32.1297 263.742L30.4546 264.709C29.9521 264.999 29.4201 264.851 29.1245 264.34C28.829 263.828 28.967 263.293 29.4695 263.003L31.1445 262.036C31.6471 261.746 31.785 261.211 31.4895 260.699C31.1939 260.187 30.6619 260.039 30.1594 260.329C28.8193 261.103 26.9572 260.586 26.169 259.22C25.3809 257.855 25.8639 255.984 27.2039 255.21L28.879 254.243C29.3815 253.953 29.9135 254.101 30.2091 254.613C30.5046 255.125 30.3666 255.659 29.8641 255.95L28.1891 256.917C27.6865 257.207 27.5486 257.741 27.8441 258.253C28.1397 258.765 28.6717 258.913 29.1742 258.623C30.5143 257.849 32.3764 258.367 33.1646 259.732C33.9527 261.097 33.4698 262.968 32.1297 263.742ZM25.7744 266.274C26.0699 266.786 26.602 266.934 27.1045 266.643C27.607 266.353 27.745 265.819 27.6169 265.21L23.6763 258.385C23.4793 258.043 22.9472 257.895 22.5137 257.918C22.0112 258.208 21.7747 258.572 21.8042 259.01L21.8829 261.468L19.7941 260.171C19.4296 259.926 18.7301 259.875 18.4936 260.239C18.2571 260.603 18.1191 261.138 18.3161 261.479L22.2567 268.305C22.5523 268.817 23.0843 268.964 23.5869 268.674C24.0894 268.384 24.2274 267.849 23.9318 267.338L22.06 264.096L22.326 264.169C22.9566 264.488 23.7941 264.004 23.8336 263.299L23.9026 263.032L25.7744 266.274Z" fill="#4A0056"/>
</g>
<g opacity="0.05">
<path fill-rule="evenodd" clip-rule="evenodd" d="M685.61 49.7254L702.047 59.215C703.69 60.164 704.244 62.3103 703.277 63.9847L695.368 77.6839C694.401 79.3583 692.266 79.9518 690.622 79.0028L679.714 72.7051L673.272 73.8565C673.035 73.9224 672.885 73.8361 672.736 73.7499L672.437 73.5773C672.226 73.2526 672.252 72.8619 672.428 72.5575L674.186 69.5132C672.542 68.5642 671.988 66.4179 672.955 64.7435L680.864 51.0443C681.831 49.3699 683.966 48.7764 685.61 49.7254ZM678.14 62.6636C677.877 63.1202 678 63.5972 678.448 63.856L679.942 64.7187C681.138 65.4088 682.799 64.9472 683.502 63.7295C684.205 62.5118 683.774 60.8424 682.579 60.1523C682.13 59.8934 682.007 59.4165 682.271 58.9598C682.535 58.5032 683.009 58.3713 683.458 58.6301L684.952 59.4928C685.4 59.7516 685.875 59.6197 686.138 59.1631C686.402 58.7064 686.279 58.2295 685.831 57.9707L684.336 57.108C683.141 56.4178 681.48 56.8794 680.777 58.0971C680.074 59.3149 680.505 60.9842 681.7 61.6744C682.148 61.9332 682.271 62.4102 682.008 62.8668C681.744 63.3234 681.269 63.4553 680.821 63.1965L679.327 62.3338C678.879 62.075 678.404 62.2069 678.14 62.6636ZM691.896 71.6202L690.402 70.7576C689.954 70.4987 689.83 70.0218 690.094 69.5651C690.358 69.1085 690.832 68.9766 691.281 69.2354L692.775 70.0981C693.223 70.3569 693.698 70.225 693.961 69.7684C694.225 69.3117 694.102 68.8348 693.654 68.576C692.458 67.8858 692.028 66.2164 692.731 64.9987C693.434 63.781 695.095 63.3194 696.29 64.0096L697.784 64.8723C698.233 65.1311 698.356 65.608 698.092 66.0647C697.828 66.5213 697.354 66.6532 696.906 66.3944L695.411 65.5317C694.963 65.2729 694.488 65.4048 694.225 65.8614C693.961 66.3181 694.084 66.795 694.533 67.0538C695.728 67.744 696.159 69.4134 695.456 70.6311C694.753 71.8488 693.091 72.3104 691.896 71.6202ZM687.105 67.8397C686.842 68.2964 686.965 68.7733 687.413 69.0322C687.861 69.291 688.336 69.1591 688.749 68.7887L692.264 62.7002C692.44 62.3957 692.317 61.9188 692.106 61.594C691.658 61.3352 691.271 61.3149 690.946 61.533L689.083 62.6898L689.153 60.4978C689.179 60.1071 688.907 59.5439 688.52 59.5235C688.133 59.5032 687.659 59.6351 687.483 59.9395L683.968 66.0281C683.704 66.4847 683.827 66.9617 684.275 67.2205C684.724 67.4793 685.198 67.3474 685.462 66.8908L687.132 63.9987L687.193 64.2372C687.228 64.8664 687.975 65.2977 688.538 65.0136L688.775 64.9477L687.105 67.8397Z" fill="#4A0056"/>
</g>
<g opacity="0.05">
<path d="M101.593 457.007L101.772 467.624L107.906 456.489L101.593 457.007Z" fill="#4D4D4D"/>
<path d="M105.214 432.358C104.952 432.286 104.622 432.477 104.291 432.668L85.2985 457.034C85.0646 457.392 85.0927 457.823 85.2861 458.158C85.4796 458.493 85.8383 458.733 86.2656 458.709L113.558 456.353C113.723 456.257 113.723 456.257 113.888 456.162C114.053 456.066 114.219 455.971 114.122 455.803C114.191 455.54 114.259 455.278 114.231 454.847L105.932 432.838C105.835 432.67 105.642 432.335 105.214 432.358Z" fill="#4A0056"/>
<path d="M105.106 433.315L96.0658 457.741L101.772 467.624L101.952 457.247L105.106 433.315Z" fill="#7B7B7B"/>
</g>
<g opacity="0.05">
<path d="M596.547 21.5229L587.919 25.5743L599.294 26.5018L596.547 21.5229Z" fill="#4D4D4D"/>
<path d="M618.063 15.423C618.026 15.182 617.748 14.9814 617.47 14.7809L590.532 8.19011C590.153 8.13039 589.811 8.31173 589.608 8.59333C589.404 8.87493 589.34 9.25678 589.516 9.5981L601.484 31.0796C601.623 31.1799 601.623 31.1799 601.762 31.2801C601.901 31.3804 602.039 31.4806 602.141 31.3398C602.382 31.2993 602.622 31.2588 602.964 31.0774L617.935 16.1867C618.036 16.0459 618.239 15.7643 618.063 15.423Z" fill="#4A0056"/>
<path d="M617.24 15.6856L593.913 17.2671L587.919 25.5743L596.483 21.9048L617.24 15.6856Z" fill="#7B7B7B"/>
</g>
<path opacity="0.05" fill-rule="evenodd" clip-rule="evenodd" d="M662.344 369.946C659.443 364.921 661.232 358.246 666.257 355.344C671.282 352.443 677.957 354.232 680.858 359.257C683.607 364.018 681.088 376.757 680.752 378.008C680.641 378.425 680.264 378.995 680 379.148C679.735 379.301 679.054 379.342 678.637 379.23C677.385 378.894 665.093 374.707 662.344 369.946ZM675.569 362.311C676.834 364.502 676.083 367.304 673.892 368.569C671.701 369.834 668.899 369.083 667.634 366.892C666.369 364.701 667.12 361.899 669.311 360.634C671.502 359.369 674.304 360.12 675.569 362.311Z" fill="#4A0056"/>
<path opacity="0.05" d="M627.765 315.982C626.278 314.933 625.098 313.681 624.001 312.286C623.452 311.588 622.431 311.38 621.733 311.928L619.746 313.064C617.655 309.764 616.712 305.795 616.79 302.034L619.222 302.106C620.101 302.233 620.88 301.541 621.007 300.663C621.26 298.906 621.738 297.09 622.419 295.58C622.831 294.867 622.447 293.884 621.734 293.472L618.166 291.412C617.738 291.165 617.288 291.285 617.041 291.714C615.393 294.568 614.316 297.751 614.117 301.062C613.665 306.129 615.135 311.163 617.917 315.243C619.744 318.01 622.269 320.229 625.123 321.877C625.551 322.124 626.001 322.003 626.248 321.575L628.226 318.15C628.72 317.294 628.479 316.394 627.765 315.982Z" fill="#4A0056"/>
<path opacity="0.05" d="M14.9908 160.272C14.9333 158.452 15.223 156.756 15.6763 155.041C15.9029 154.183 15.4552 153.241 14.5973 153.015L12.4939 152.111C13.8711 148.455 16.4734 145.313 19.5235 143.112L20.9296 145.098C21.3572 145.875 22.3787 146.082 23.1563 145.654C24.7114 144.799 26.4502 144.088 28.0657 143.723C28.8835 143.623 29.4372 142.724 29.3367 141.907L28.8344 137.818C28.7741 137.327 28.4068 137.04 27.9161 137.1C24.645 137.502 21.4543 138.558 18.6912 140.392C14.3729 143.081 11.2369 147.285 9.65325 151.962C8.54296 155.087 8.29063 158.438 8.69252 161.709C8.75281 162.2 9.12011 162.487 9.61077 162.427L13.5361 161.944C14.5174 161.824 15.0912 161.089 14.9908 160.272Z" fill="#4A0056"/>
<g opacity="0.05">
<path d="M20.3517 348.682C19.8048 347.778 17.4432 344.724 10.8441 342.921C10.8441 342.921 3.17964 340.339 -1.59997 342.974C-4.30949 344.625 -5.9239 347.67 -7.07789 351.675C-8.23632 355.679 -10.3573 363.186 -3.96921 367.09L-3.96478 367.091L-4.80494 370.209C-4.80494 370.209 -5.18807 371.462 -4.46273 371.93C-3.58826 372.498 -2.76846 371.691 -1.57271 370.901C-0.919621 370.468 0.000837576 369.818 0.694781 369.321C5.32352 371.01 9.22996 371.03 9.67976 371.001C10.7249 370.933 16.3398 371.655 19.2368 364.356C22.2272 356.832 22.1923 351.552 20.3517 348.682ZM17.3108 363.242C14.8793 369.336 10.3773 368.558 9.49792 368.611C9.12087 368.635 5.69473 368.613 1.74263 367.256C1.74263 367.256 -2.27607 370.244 -3.47711 370.983C-3.66457 371.098 -3.85496 371.116 -3.96155 371.053C-4.10999 370.968 -4.10078 370.757 -4.02232 370.464C-3.90579 370.047 -2.60698 365.288 -2.60698 365.288C-2.61141 365.287 -2.61141 365.287 -2.60698 365.288C-8.01273 362.011 -5.95121 355.683 -4.9842 352.341C-4.01718 348.998 -2.67671 346.408 -0.393762 345.036C3.63854 342.849 10.1377 345.078 10.1377 345.078C15.7225 346.605 17.9291 349.084 18.3918 349.841C19.9526 352.247 19.8167 356.958 17.3108 363.242Z" fill="#4A0056"/>
<path d="M10.2198 356.125C10.5611 354.568 10.0315 353.564 8.63354 353.105" stroke="#4A0056" stroke-width="0.518873" stroke-linecap="round" stroke-linejoin="round"/>
<path d="M11.9549 357.313C12.3696 355.89 12.2861 354.587 11.7013 353.399C11.1165 352.211 10.0933 351.364 8.62427 350.851" stroke="#4A0056" stroke-width="0.518873" stroke-linecap="round" stroke-linejoin="round"/>
<path d="M13.704 358.643C14.3526 356.152 14.1662 354.009 13.1528 352.203C12.1382 350.402 10.5896 349.21 8.51343 348.639" stroke="#4A0056" stroke-width="0.518873" stroke-linecap="round" stroke-linejoin="round"/>
<path d="M6.65373 360.795C6.65373 360.795 7.16902 360.982 7.54681 360.69L8.29102 360.112C8.65426 359.821 9.35834 359.766 9.88969 360.302C10.184 360.605 10.7054 361.178 11.0147 361.584C11.3456 362.017 12.001 362.995 12.001 362.995C12.3131 363.462 12.2643 364.017 11.8399 364.501C11.8386 364.505 11.8329 364.509 11.8329 364.509C11.4084 364.958 10.8937 365.353 10.287 365.684C10.2813 365.687 10.2813 365.687 10.2756 365.691C9.78876 365.929 9.34494 366.024 8.95109 365.969C8.90425 365.966 8.84535 365.955 8.78008 365.933C8.61155 365.888 8.45369 365.82 8.30455 365.721L8.29623 365.699C7.75248 365.368 6.88946 364.669 5.50584 363.287C4.60589 362.388 3.8915 361.524 3.31334 360.702C3.00583 360.27 2.7019 359.79 2.40404 359.252C2.39448 359.235 2.38491 359.217 2.37534 359.2C2.36577 359.182 2.3562 359.165 2.34664 359.147C2.33707 359.13 2.3275 359.112 2.31793 359.095C2.30836 359.077 2.2988 359.06 2.28923 359.042C1.99706 358.501 1.75561 357.983 1.55602 357.486C1.171 356.546 0.821394 355.455 0.53367 354.188C0.092988 352.231 -0.0486309 351.092 -0.0470684 350.43L-0.0610716 350.411C-0.0682062 350.225 -0.0487316 350.046 0.00303214 349.871C0.0172798 349.8 0.037906 349.74 0.0592306 349.696C0.210692 349.308 0.510994 348.95 0.950021 348.625C0.955701 348.621 0.955701 348.621 0.961381 348.618C1.53619 348.229 2.11339 347.955 2.69868 347.793C2.70311 347.794 2.70879 347.791 2.70879 347.791C3.31819 347.645 3.79761 347.878 4.0245 348.397C4.02769 348.403 4.49813 349.486 4.68706 350.005C4.86447 350.496 5.07912 351.256 5.17586 351.675C5.34935 352.429 4.95145 353.045 4.5308 353.231L3.68452 353.622C3.25446 353.826 3.15184 354.386 3.15184 354.386C3.15184 354.386 3.08842 358.738 6.65373 360.795Z" fill="#4A0056"/>
</g>
<g opacity="0.05">
<path d="M58.3496 206.913C59.6051 201.896 55.4025 196.52 48.9827 194.914C42.5629 193.307 36.3233 196.069 35.0678 201.085C33.9468 205.564 37.1341 210.36 42.5488 212.476C42.9025 212.646 43.3968 212.933 43.4201 213.293C43.4562 213.601 43.3207 214.029 43.1905 214.323C43.1905 214.323 42.8588 215.083 42.7937 215.23C42.6699 215.498 42.2785 216.27 43.6522 216.098C45.0323 215.899 51.3131 213.99 54.4161 211.884C56.5758 210.494 57.85 208.909 58.3496 206.913Z" fill="#4A0056"/>
<path d="M44.9464 200.974L44.1206 200.768C43.9874 200.734 43.8552 200.81 43.8296 200.912L42.6125 205.775C42.5805 205.903 42.6679 206.006 42.801 206.04L43.6268 206.246C43.76 206.28 43.8922 206.204 43.9178 206.102L45.1349 201.239C45.1605 201.137 45.0796 201.008 44.9464 200.974Z" fill="white"/>
<path d="M50.5671 202.381L49.7413 202.174C49.6081 202.141 49.4759 202.217 49.4503 202.319L48.7265 205.211L47.1648 201.611C47.1648 201.611 47.1712 201.585 47.1446 201.579C47.1446 201.579 47.1446 201.579 47.1243 201.547C47.1243 201.547 47.1243 201.547 47.0977 201.54L46.2719 201.333C46.1387 201.3 46.0065 201.376 45.9809 201.478L44.7639 206.34C44.7318 206.468 44.8192 206.572 44.9524 206.605L45.7781 206.812C45.9113 206.845 46.0435 206.77 46.0691 206.667L46.793 203.775L48.3546 207.375C48.3749 207.407 48.3685 207.433 48.3951 207.44C48.3951 207.44 48.3951 207.44 48.4217 207.446C48.4217 207.446 48.4217 207.446 48.4484 207.453C48.475 207.46 48.475 207.46 48.5016 207.466L49.3274 207.673C49.4606 207.706 49.5928 207.631 49.6184 207.528L50.8355 202.666C50.7812 202.543 50.7003 202.414 50.5671 202.381Z" fill="white"/>
<path d="M41.9503 204.576L39.7394 204.022L40.7066 200.158C40.7386 200.03 40.6577 199.901 40.5245 199.868L39.6987 199.661C39.5655 199.627 39.4334 199.703 39.4013 199.831L38.1843 204.694C38.1715 204.745 38.1853 204.803 38.1991 204.861C38.246 204.9 38.2928 204.938 38.3461 204.952L41.596 205.765C41.7292 205.799 41.8347 205.716 41.8667 205.588L42.0653 204.795C42.1645 204.738 42.0835 204.609 41.9503 204.576Z" fill="white"/>
<path d="M54.7614 204.736C54.8946 204.77 55.0001 204.687 55.0322 204.559L55.2307 203.766C55.2628 203.638 55.1818 203.509 55.0753 203.482L51.8254 202.669C51.7721 202.655 51.7125 202.668 51.6528 202.68C51.6133 202.725 51.5739 202.769 51.5611 202.82L50.344 207.683C50.3312 207.734 50.345 207.792 50.3588 207.85C50.4057 207.889 50.4526 207.928 50.5058 207.941L53.7557 208.754C53.8889 208.788 53.9944 208.705 54.0265 208.577L54.225 207.784C54.2571 207.656 54.1761 207.527 54.0696 207.5L51.8586 206.947L52.0636 206.128L54.2746 206.681C54.4078 206.715 54.5133 206.632 54.5453 206.504L54.7439 205.711C54.7759 205.583 54.695 205.454 54.5884 205.427L52.3775 204.874L52.5825 204.055L54.7934 204.608L54.7614 204.736Z" fill="white"/>
</g>
<g opacity="0.05">
<path d="M505.62 1.22754C503.525 -3.49977 496.905 -5.15372 490.854 -2.47203C484.804 0.209665 481.584 6.22553 483.679 10.9528C485.55 15.1737 491.012 16.9944 496.584 15.333C496.967 15.2496 497.533 15.1717 497.773 15.4408C497.991 15.6616 498.148 16.0827 498.226 16.3944C498.226 16.3944 498.432 17.1977 498.471 17.3536C498.538 17.6411 498.704 18.4908 499.681 17.5096C500.647 16.5042 504.425 11.1359 505.576 7.56669C506.424 5.14209 506.454 3.10882 505.62 1.22754Z" fill="#4A0056"/>
<path d="M491.4 4.78928L490.621 5.13423C490.496 5.18987 490.438 5.33085 490.481 5.42733L492.512 10.0099C492.566 10.1305 492.698 10.1584 492.824 10.1027L493.602 9.75778C493.727 9.70214 493.785 9.56116 493.742 9.46468L491.711 4.88209C491.668 4.78561 491.525 4.73364 491.4 4.78928Z" fill="white"/>
<path d="M496.697 2.44136L495.918 2.78631C495.793 2.84194 495.735 2.98293 495.778 3.0794L496.986 5.80484L493.541 3.92689C493.541 3.92689 493.53 3.90277 493.505 3.9139C493.505 3.9139 493.505 3.9139 493.469 3.90091C493.469 3.90091 493.469 3.90091 493.444 3.91203L492.666 4.25698C492.54 4.31262 492.482 4.4536 492.525 4.55008L494.556 9.13268C494.61 9.25327 494.742 9.28112 494.868 9.22548L495.646 8.88053C495.772 8.8249 495.829 8.68391 495.786 8.58744L494.578 5.862L498.024 7.73995C498.06 7.75294 498.071 7.77706 498.096 7.76593C498.096 7.76593 498.096 7.76593 498.121 7.75481C498.121 7.75481 498.121 7.75481 498.146 7.74368C498.171 7.73255 498.171 7.73255 498.196 7.72142L498.974 7.37648C499.1 7.32084 499.157 7.17985 499.115 7.08338L497.083 2.50078C496.965 2.43769 496.822 2.38572 496.697 2.44136Z" fill="white"/>
<path d="M491.253 9.47176L489.169 10.3953L487.555 6.75337C487.501 6.63278 487.358 6.58081 487.232 6.63645L486.454 6.9814C486.329 7.03703 486.271 7.17802 486.324 7.29861L488.356 11.8812C488.377 11.9294 488.424 11.9666 488.47 12.0037C488.531 12.0055 488.592 12.0074 488.642 11.9851L491.705 10.6276C491.83 10.572 491.863 10.4421 491.809 10.3215L491.478 9.57383C491.521 9.46809 491.378 9.41613 491.253 9.47176Z" fill="white"/>
<path d="M501.452 1.71867C501.578 1.66303 501.611 1.53318 501.557 1.41258L501.226 0.664895C501.172 0.5443 501.029 0.492333 500.929 0.536843L497.866 1.89438C497.816 1.91663 497.776 1.96301 497.737 2.00938C497.733 2.06875 497.729 2.12811 497.751 2.17635L499.782 6.75895C499.803 6.80718 499.85 6.84429 499.896 6.88141C499.957 6.88327 500.018 6.88513 500.068 6.86288L503.131 5.50534C503.256 5.44971 503.289 5.31985 503.235 5.19925L502.904 4.45157C502.851 4.33097 502.707 4.27901 502.607 4.32351L500.523 5.24708L500.181 4.47528L502.265 3.55171C502.39 3.49607 502.423 3.36622 502.37 3.24562L502.038 2.49793C501.985 2.37734 501.842 2.32537 501.741 2.36988L499.657 3.29345L499.315 2.52165L501.399 1.59808L501.452 1.71867Z" fill="white"/>
</g>
<g opacity="0.05">
<path fill-rule="evenodd" clip-rule="evenodd" d="M66.7542 51.1172C72.0931 52.3406 75.46 57.4995 74.2443 62.8051L74.2443 62.8051C74.0995 63.4368 73.9259 64.1947 73.3998 64.7389C73.6364 65.4579 73.688 66.4004 73.4854 67.2847C72.7907 70.3164 69.6695 72.2604 66.6187 71.5613C65.6017 71.3283 64.7698 70.8718 64.0939 70.318C63.4294 70.2987 62.9209 70.1822 62.2854 70.0366L62.2853 70.0366C56.9464 68.8132 53.5796 63.6542 54.7953 58.3487C54.94 57.7171 55.2118 57.1146 55.4837 56.5121C55.1489 55.6376 55.1262 54.5688 55.3578 53.5582C56.0524 50.5265 59.1737 48.5825 62.2245 49.2816C63.3686 49.5437 64.2987 50.1557 65.0727 50.8649C65.6101 50.8551 66.2457 51.0007 66.7542 51.1172ZM66.1175 67.3249C67.0942 67.1498 67.8455 66.7901 68.4987 66.275C69.1519 65.7599 69.4527 65.0311 69.3721 64.2149C69.5169 63.5833 69.5055 63.0489 69.3671 62.4853C69.2286 61.9218 68.9341 61.4554 68.4835 61.0863L68.4835 61.0862C68.0329 60.7171 67.5823 60.3479 67.0047 59.9497C66.7472 59.8343 66.472 59.6908 66.1845 59.5409C65.7945 59.3377 65.3818 59.1225 64.9594 58.9492C64.6335 58.7245 64.3296 58.5895 64.0861 58.4813C63.8981 58.3978 63.7462 58.3303 63.648 58.2499C63.3937 58.1916 63.1685 58.007 62.9432 57.8225L62.9432 57.8224L62.9432 57.8224C62.7179 57.6379 62.4926 57.4533 62.3944 57.2978C62.1691 57.1133 62.1981 56.9869 62.2559 56.7343C62.3428 56.3553 62.6549 56.1609 63.0942 55.9957C63.5334 55.8304 64.1979 55.8497 64.8335 55.9954C65.5962 56.1701 66.0758 56.413 66.3992 56.753C66.7227 57.093 66.919 57.4039 67.0575 57.9675C67.2249 58.4047 67.4212 58.7156 67.5194 58.871L67.5194 58.871C67.7447 59.0556 67.97 59.2402 68.3513 59.3276C68.7327 59.4149 69.143 59.376 69.4551 59.1816C69.7672 58.9872 69.9522 58.7637 70.0391 58.3847C70.1259 58.0058 70.2127 57.6268 70.0453 57.1896C70.0156 56.8881 69.8313 56.6238 69.6184 56.3184C69.543 56.2103 69.4641 56.097 69.3871 55.9751C68.9365 55.6059 68.4859 55.2368 67.9082 54.8385C67.3016 54.5665 66.5678 54.2655 65.678 54.0616C64.6611 53.8285 63.6152 53.7219 62.7946 53.7997C61.8469 53.8485 61.0955 54.2082 60.5984 54.6261C60.1012 55.044 59.7023 55.6173 59.5286 56.3753C59.3549 57.1332 59.4644 57.8231 59.73 58.4158C59.9956 59.0084 60.5443 59.533 61.122 59.9313C61.6997 60.3296 62.5317 60.7861 63.4907 61.2718C64.2245 61.5729 64.8311 61.8448 65.1835 62.0585C65.5359 62.2722 65.8883 62.486 66.0847 62.7969C66.281 63.1078 66.3503 63.3895 66.2634 63.7685C66.1766 64.1475 65.8355 64.4682 65.2402 64.7306C64.6449 64.9931 63.9804 64.9738 63.2177 64.799C62.7092 64.6825 62.2297 64.4397 61.8773 64.226C61.652 64.0414 61.4556 63.7305 61.2593 63.4196L61.2593 63.4196C61.2383 63.3343 61.2084 63.2347 61.1757 63.126C61.1003 62.8757 61.0105 62.577 60.9824 62.2925C60.969 62.2382 60.9568 62.1793 60.9441 62.1182C60.8908 61.8618 60.8295 61.5671 60.6476 61.4181C60.4223 61.2335 60.197 61.0489 59.8156 60.9615C59.4343 60.8742 59.024 60.9131 58.7119 61.1075C58.3997 61.3019 58.2147 61.5254 58.1279 61.9044C57.9832 62.536 58.1216 63.0995 58.3583 63.8185C58.722 64.5666 59.1436 65.0621 59.6924 65.5867C60.4664 66.2959 61.5526 66.8107 62.9509 67.1311C64.0949 67.3932 65.1408 67.4999 66.1175 67.3249Z" fill="#4A0056"/>
</g>
<g opacity="0.05">
<path fill-rule="evenodd" clip-rule="evenodd" d="M397.261 1.97567C402.454 0.231891 408.018 2.87443 409.751 8.03428L409.751 8.03431C409.958 8.64857 410.205 9.38569 410.041 10.1245C410.618 10.6142 411.154 11.3911 411.443 12.2511C412.433 15.1996 410.786 18.4871 407.818 19.4835C406.829 19.8157 405.882 19.8606 405.016 19.7411C404.439 20.0716 403.945 20.2376 403.327 20.4452L403.327 20.4452C398.134 22.189 392.569 19.5465 390.836 14.3866C390.63 13.7724 390.548 13.1166 390.465 12.4608C389.723 11.8897 389.145 10.99 388.815 10.0071C387.825 7.05864 389.473 3.77119 392.44 2.77474C393.552 2.40107 394.665 2.43749 395.695 2.63827C396.149 2.34934 396.767 2.14175 397.261 1.97567ZM405.179 16.1318C405.921 15.4726 406.374 14.7736 406.662 13.9933C406.951 13.2129 406.827 12.4343 406.332 11.7802C406.125 11.1659 405.837 10.716 405.425 10.3077C405.012 9.89928 404.518 9.65527 403.941 9.57564L403.941 9.57563C403.364 9.496 402.787 9.41637 402.086 9.37826C401.806 9.41422 401.496 9.43554 401.173 9.45781C400.734 9.48802 400.27 9.51999 399.819 9.59266C399.424 9.57116 399.094 9.61465 398.83 9.6495C398.626 9.67641 398.461 9.69816 398.336 9.68081C398.088 9.76384 397.8 9.72403 397.511 9.68421L397.511 9.68421L397.511 9.68421C397.223 9.64439 396.934 9.60458 396.769 9.52324C396.481 9.48342 396.44 9.36057 396.357 9.11486C396.233 8.7463 396.398 8.41756 396.686 8.0473C396.975 7.67704 397.552 7.34658 398.17 7.13899C398.911 6.88988 399.447 6.84666 399.901 6.96781C400.354 7.08896 400.684 7.25163 401.096 7.66001C401.467 7.94553 401.797 8.1082 401.962 8.18954L401.962 8.18954C402.25 8.22935 402.539 8.26917 402.91 8.14462C403.281 8.02006 403.61 7.77265 403.775 7.44391C403.94 7.11516 403.981 6.82793 403.857 6.45937C403.733 6.09081 403.609 5.72225 403.238 5.43673C403.056 5.19517 402.761 5.06593 402.419 4.91655C402.299 4.86369 402.172 4.80831 402.043 4.74453C401.466 4.66489 400.889 4.58527 400.188 4.54715C399.529 4.63189 398.746 4.75815 397.88 5.04878C396.891 5.38093 395.944 5.83593 395.284 6.33075C394.502 6.86709 394.048 7.56609 393.843 8.18206C393.637 8.79804 393.596 9.49534 393.843 10.2325C394.091 10.9696 394.545 11.5008 395.08 11.8677C395.616 12.2345 396.358 12.3955 397.059 12.4336C397.76 12.4717 398.707 12.4268 399.779 12.3404C400.562 12.2141 401.221 12.1294 401.634 12.1277C402.046 12.126 402.458 12.1243 402.788 12.2869C403.117 12.4496 403.323 12.6538 403.447 13.0224C403.571 13.3909 403.448 13.8425 403.077 14.3771C402.706 14.9118 402.129 15.2422 401.387 15.4913C400.893 15.6574 400.357 15.7006 399.945 15.7023C399.657 15.6625 399.327 15.4999 398.997 15.3372L398.997 15.3372C398.935 15.2754 398.857 15.2061 398.772 15.1304C398.578 14.9563 398.345 14.7484 398.172 14.5204C398.133 14.4811 398.092 14.4372 398.049 14.3917C397.869 14.2009 397.663 13.9815 397.43 13.9494C397.142 13.9096 396.853 13.8697 396.482 13.9943C396.112 14.1189 395.782 14.3663 395.617 14.695C395.453 15.0238 395.411 15.311 395.535 15.6795C395.741 16.2938 396.154 16.7022 396.731 17.1919C397.432 17.6401 398.05 17.8426 398.792 18.0035C399.822 18.2043 401.018 18.0764 402.377 17.6197C403.49 17.246 404.438 16.791 405.179 16.1318Z" fill="#4A0056"/>
</g>
<path opacity="0.05" d="M576.965 88.4052L578.684 88.0105C578.684 88.0105 579.2 87.8921 579.293 87.5119C579.426 87.3021 579.309 86.791 579.309 86.791C579.309 86.791 578.8 84.5761 579.753 83.9986C580.706 83.421 582.457 85.53 584.067 86.2365C585.255 86.6811 586.075 86.3134 586.075 86.3134L589.684 85.4846C589.684 85.4846 591.536 84.8801 590.364 83.7145C590.325 83.5441 589.574 82.6403 586.909 81.2793C584.205 79.7479 584.456 80.0492 586.517 75.6301C587.727 73.0206 588.102 71.4997 587.774 70.8577C587.484 70.3861 586.32 70.8327 586.32 70.8327L582.195 71.7799C582.195 71.7799 581.851 71.8589 581.718 72.0687C581.586 72.2785 581.492 72.6587 581.492 72.6587C581.492 72.6587 581.196 74.5203 580.688 76.251C579.502 79.7518 578.853 80.0801 578.47 79.9886C577.666 79.6354 577.524 78.2329 577.329 77.3811C576.625 74.3144 576.867 73.0034 575.413 72.9784C574.858 72.9264 574.515 73.0054 573.483 73.2422C571.936 73.5974 570.733 73.8736 570.124 74.3722C569.647 74.661 569.421 75.2511 569.593 75.2116C569.937 75.1327 570.491 75.1846 570.953 75.6168C571.414 76.049 571.727 77.412 571.727 77.412C571.727 77.412 572.72 80.9503 572.111 81.4489C571.673 81.908 570.657 81.4239 568.485 79.0532C567.312 77.8875 566.233 76.3417 566.233 76.3417C566.233 76.3417 565.983 76.0404 565.772 75.9095C565.389 75.8181 565.046 75.897 565.046 75.897L561.092 76.8047C561.092 76.8047 560.577 76.9231 560.311 77.3428C560.178 77.5527 560.468 78.0243 560.468 78.0243C560.468 78.0243 565.205 84.4695 569.464 87.2579C573.434 89.5747 576.965 88.4052 576.965 88.4052Z" fill="#4A0056"/>
<path opacity="0.05" d="M43.2392 420.914L44.9262 421.428C44.9262 421.428 45.4323 421.583 45.7029 421.3C45.9226 421.184 46.0754 420.682 46.0754 420.682C46.0754 420.682 46.7378 418.508 47.8519 418.482C48.966 418.456 49.4336 421.157 50.4774 422.572C51.2858 423.549 52.1803 423.639 52.1803 423.639L55.723 424.718C55.723 424.718 57.6296 425.116 57.1937 423.522C57.2447 423.355 57.0443 422.197 55.4117 419.689C53.83 417.015 53.8968 417.4 57.8856 414.596C60.235 412.936 61.3174 411.804 61.3525 411.084C61.3366 410.53 60.1048 410.338 60.1048 410.338L56.056 409.104C56.056 409.104 55.7186 409.001 55.4989 409.117C55.2793 409.233 55.0087 409.516 55.0087 409.516C55.0087 409.516 53.8244 410.983 52.5223 412.23C49.7495 414.675 49.0237 414.636 48.7373 414.366C48.2154 413.659 48.7917 412.373 49.0464 411.537C49.9635 408.527 50.8263 407.511 49.5786 406.765C49.1234 406.444 48.786 406.341 47.7738 406.032C46.2555 405.57 45.0746 405.21 44.2979 405.339C43.7409 405.352 43.2506 405.751 43.4193 405.802C43.7567 405.905 44.2119 406.226 44.3964 406.831C44.581 407.435 44.1734 408.773 44.1734 408.773C44.1734 408.773 43.2721 412.336 42.4954 412.464C41.8874 412.645 41.2477 411.719 40.5446 408.581C40.1087 406.986 39.9434 405.108 39.9434 405.108C39.9434 405.108 39.8767 404.722 39.7589 404.504C39.4725 404.234 39.1351 404.131 39.1351 404.131L35.255 402.949C35.255 402.949 34.7489 402.795 34.3096 403.026C34.0899 403.142 34.1058 403.695 34.1058 403.695C34.1058 403.695 35.0024 411.643 37.3064 416.183C39.5946 420.169 43.2392 420.914 43.2392 420.914Z" fill="#4A0056"/>
<path opacity="0.05" d="M642.358 266.963L644.112 266.782C644.112 266.782 644.639 266.727 644.778 266.362C644.936 266.17 644.882 265.648 644.882 265.648C644.882 265.648 644.649 263.387 645.665 262.931C646.682 262.475 648.161 264.782 649.672 265.681C650.797 266.268 651.656 266.003 651.656 266.003L655.34 265.623C655.34 265.623 657.251 265.25 656.231 263.949C656.213 263.776 655.579 262.787 653.101 261.109C650.605 259.258 650.816 259.588 653.404 255.455C654.925 253.013 655.483 251.55 655.236 250.872C655.007 250.369 653.797 250.669 653.797 250.669L649.586 251.104C649.586 251.104 649.235 251.14 649.078 251.332C648.92 251.524 648.781 251.89 648.781 251.89C648.781 251.89 648.259 253.701 647.543 255.356C645.936 258.685 645.253 258.932 644.884 258.794C644.128 258.345 644.16 256.936 644.07 256.066C643.747 252.936 644.148 251.665 642.709 251.462C642.165 251.342 641.814 251.379 640.761 251.487C639.182 251.65 637.954 251.777 637.289 252.197C636.78 252.425 636.483 252.983 636.659 252.965C637.009 252.929 637.554 253.048 637.958 253.534C638.363 254.019 638.507 255.41 638.507 255.41C638.507 255.41 639.059 259.044 638.393 259.464C637.903 259.866 636.954 259.261 635.088 256.642C634.067 255.341 633.186 253.675 633.186 253.675C633.186 253.675 632.975 253.345 632.781 253.19C632.413 253.052 632.062 253.088 632.062 253.088L628.027 253.504C628.027 253.504 627.501 253.559 627.186 253.943C627.028 254.135 627.257 254.638 627.257 254.638C627.257 254.638 631.169 261.615 635.054 264.905C638.71 267.691 642.358 266.963 642.358 266.963Z" fill="#4A0056"/>
<path opacity="0.05" d="M588.782 410.117L590.469 409.601C590.469 409.601 590.974 409.446 591.041 409.06C591.158 408.841 591.005 408.34 591.005 408.34C591.005 408.34 590.34 406.167 591.249 405.523C592.158 404.879 594.055 406.857 595.711 407.447C596.928 407.806 597.72 407.381 597.72 407.381L601.261 406.297C601.261 406.297 603.065 405.562 601.812 404.483C601.761 404.316 600.948 403.468 598.193 402.3C595.387 400.965 595.658 401.248 597.399 396.693C598.42 394.004 598.685 392.46 598.312 391.843C597.99 391.394 596.861 391.922 596.861 391.922L592.814 393.161C592.814 393.161 592.476 393.264 592.359 393.483C592.241 393.702 592.175 394.088 592.175 394.088C592.175 394.088 592.012 395.966 591.629 397.728C590.696 401.305 590.072 401.678 589.684 401.614C588.856 401.319 588.615 399.931 588.359 399.095C587.438 396.086 587.586 394.761 586.134 394.84C585.577 394.828 585.24 394.931 584.228 395.241C582.711 395.705 581.53 396.067 580.958 396.607C580.503 396.929 580.32 397.534 580.488 397.482C580.825 397.379 581.382 397.391 581.873 397.79C582.364 398.188 582.773 399.525 582.773 399.525C582.773 399.525 584.016 402.984 583.444 403.524C583.041 404.014 581.993 403.603 579.657 401.393C578.404 400.314 577.218 398.849 577.218 398.849C577.218 398.849 576.947 398.566 576.727 398.451C576.339 398.387 576.001 398.49 576.001 398.49L572.123 399.678C572.123 399.678 571.617 399.832 571.382 400.27C571.264 400.489 571.587 400.939 571.587 400.939C571.587 400.939 576.771 407.03 581.218 409.507C585.343 411.535 588.782 410.117 588.782 410.117Z" fill="#4A0056"/>
<g opacity="0.05">
<path d="M683.19 154.79C680.907 154.364 678.78 154.552 676.823 155.675C674.843 156.811 673.658 158.494 673.307 160.849C672.448 160.527 671.675 160.215 670.88 159.956C670.607 159.862 670.272 159.819 669.999 159.888C669.111 160.135 668.24 160.434 667.214 160.763C667.555 160.086 667.811 159.475 668.144 158.912C668.391 158.501 668.385 158.24 668.035 157.849C665.791 155.338 665.317 152.275 666.868 149.604C668.302 147.136 670.628 145.996 673.466 145.797C677.34 145.521 681.111 147.67 682.622 150.974C683.171 152.172 683.382 153.424 683.19 154.79ZM673.026 151.387C673.171 150.865 672.819 150.281 672.264 150.128C671.7 149.972 671.131 150.287 670.981 150.827C670.829 151.376 671.16 151.926 671.726 152.073C672.3 152.23 672.878 151.918 673.026 151.387ZM678.685 151.676C678.124 151.551 677.546 151.901 677.429 152.43C677.306 152.977 677.67 153.516 678.238 153.653C678.818 153.783 679.35 153.46 679.485 152.897C679.607 152.35 679.256 151.804 678.685 151.676Z" fill="#4A0056"/>
<path d="M684.956 169.71C684.313 169.229 683.772 168.608 683.091 168.367C682.409 168.126 681.588 168.341 680.844 168.238C678.573 167.921 676.733 166.843 675.457 164.979C673.021 161.424 674.506 157.229 678.657 155.8C682.346 154.528 686.879 156.342 688.451 159.718C689.822 162.662 688.796 165.891 685.9 167.392C685.056 167.823 684.684 168.262 684.941 169.159C684.99 169.325 684.953 169.518 684.956 169.71ZM678.67 160.078C679.127 160.188 679.583 159.933 679.707 159.502C679.837 159.043 679.549 158.561 679.074 158.446C678.599 158.331 678.113 158.627 678.022 159.086C677.936 159.526 678.223 159.97 678.67 160.078ZM684.311 159.709C683.873 159.604 683.408 159.856 683.284 160.288C683.154 160.746 683.435 161.217 683.901 161.33C684.357 161.44 684.802 161.191 684.918 160.749C685.056 160.302 684.777 159.822 684.311 159.709Z" fill="#4A0056"/>
</g>
<g opacity="0.05">
<path d="M132.839 59.807C130.57 60.302 128.684 61.3019 127.317 63.0967C125.934 64.9131 125.496 66.9246 126.088 69.2311C125.171 69.2678 124.338 69.2814 123.504 69.3518C123.216 69.3707 122.891 69.4618 122.666 69.6311C121.944 70.2037 121.258 70.8177 120.44 71.5194C120.491 70.7636 120.49 70.1015 120.578 69.4531C120.645 68.9783 120.538 68.7403 120.064 68.5153C117.021 67.0744 115.393 64.4362 115.785 61.3725C116.146 58.5408 117.847 56.5872 120.385 55.3006C123.846 53.5409 128.156 54.055 130.832 56.5119C131.804 57.4029 132.485 58.4741 132.839 59.807ZM122.151 60.6222C122.082 60.0847 121.531 59.6831 120.96 59.7577C120.38 59.8338 119.978 60.3445 120.05 60.9005C120.123 61.4657 120.642 61.8443 121.22 61.7589C121.81 61.6812 122.221 61.169 122.151 60.6222ZM127.478 58.6892C126.912 58.7915 126.516 59.339 126.613 59.8719C126.713 60.4232 127.257 60.7787 127.834 60.6841C128.419 60.5788 128.784 60.0744 128.69 59.503C128.59 58.9517 128.054 58.5854 127.478 58.6892Z" fill="#4A0056"/>
<path d="M140.265 72.8685C139.485 72.6746 138.746 72.3132 138.024 72.3558C137.303 72.3984 136.63 72.9156 135.904 73.1103C133.689 73.7005 131.574 73.4226 129.674 72.2012C126.047 69.8718 125.785 65.4296 129.055 62.4997C131.96 59.8945 136.841 59.804 139.602 62.3037C142.009 64.4829 142.319 67.8574 140.234 70.3661C139.624 71.0906 139.451 71.6393 140.037 72.3665C140.146 72.5 140.187 72.692 140.265 72.8685ZM130.73 66.4359C131.193 66.3599 131.514 65.9477 131.461 65.5023C131.403 65.0292 130.95 64.6966 130.467 64.7757C129.985 64.8547 129.653 65.3161 129.747 65.7737C129.838 66.2129 130.276 66.5103 130.73 66.4359ZM135.784 63.9041C135.339 63.977 135.009 64.3908 135.062 64.8362C135.121 65.3092 135.562 65.6342 136.035 65.5567C136.499 65.4807 136.812 65.0793 136.747 64.6262C136.7 64.1608 136.257 63.8266 135.784 63.9041Z" fill="#4A0056"/>
</g>
<g opacity="0.05">
<path d="M668.964 437.288C666.861 436.301 664.756 435.947 662.58 436.54C660.377 437.141 658.806 438.471 657.873 440.662C657.123 440.133 656.453 439.637 655.749 439.186C655.509 439.026 655.195 438.9 654.914 438.898C653.992 438.913 653.074 438.983 651.998 439.043C652.499 438.474 652.9 437.947 653.364 437.486C653.707 437.151 653.767 436.897 653.527 436.43C651.988 433.435 652.301 430.351 654.475 428.157C656.485 426.13 659.023 425.613 661.82 426.136C665.638 426.845 668.746 429.875 669.375 433.452C669.605 434.751 669.494 436.015 668.964 437.288ZM659.985 431.434C660.257 430.966 660.064 430.312 659.565 430.024C659.059 429.731 658.429 429.892 658.148 430.377C657.862 430.87 658.043 431.486 658.555 431.77C659.07 432.067 659.708 431.911 659.985 431.434ZM665.389 433.14C664.877 432.877 664.23 433.071 663.983 433.553C663.727 434.051 663.943 434.664 664.458 434.94C664.987 435.213 665.582 435.034 665.856 434.523C666.112 434.025 665.909 433.408 665.389 433.14Z" fill="#4A0056"/>
<path d="M666.913 452.173C666.412 451.544 666.045 450.808 665.446 450.403C664.848 449.998 663.999 449.999 663.305 449.712C661.187 448.833 659.678 447.326 658.912 445.201C657.451 441.146 659.945 437.461 664.322 437.124C668.213 436.823 672.142 439.72 672.813 443.384C673.398 446.577 671.592 449.444 668.41 450.167C667.486 450.371 667.015 450.702 667.037 451.635C667.043 451.808 666.959 451.985 666.913 452.173ZM663.258 441.267C663.672 441.488 664.177 441.357 664.406 440.97C664.647 440.56 664.49 440.02 664.059 439.789C663.628 439.559 663.084 439.723 662.88 440.143C662.686 440.548 662.852 441.05 663.258 441.267ZM668.809 442.332C668.412 442.119 667.898 442.246 667.67 442.633C667.428 443.043 667.581 443.57 668.004 443.796C668.418 444.018 668.91 443.89 669.135 443.491C669.38 443.093 669.232 442.558 668.809 442.332Z" fill="#4A0056"/>
</g>
<g opacity="0.05">
<path d="M173.694 447.255C171.587 448.233 169.964 449.619 169.021 451.669C168.067 453.743 168.078 455.801 169.157 457.923C168.271 458.159 167.46 458.354 166.662 458.604C166.385 458.685 166.087 458.845 165.905 459.059C165.325 459.775 164.789 460.524 164.143 461.387C164.029 460.638 163.883 459.992 163.827 459.34C163.79 458.862 163.634 458.653 163.122 458.536C159.838 457.793 157.675 455.572 157.39 452.497C157.126 449.654 158.361 447.378 160.558 445.569C163.553 443.098 167.871 442.661 171.018 444.476C172.16 445.134 173.058 446.032 173.694 447.255ZM163.44 450.378C163.256 449.869 162.63 449.597 162.09 449.794C161.54 449.995 161.259 450.581 161.45 451.108C161.645 451.643 162.233 451.9 162.779 451.691C163.338 451.486 163.628 450.897 163.44 450.378ZM168.219 447.332C167.688 447.555 167.421 448.175 167.632 448.674C167.85 449.191 168.458 449.419 169.001 449.201C169.549 448.971 169.794 448.399 169.578 447.862C169.361 447.346 168.758 447.105 168.219 447.332Z" fill="#4A0056"/>
<path d="M183.786 458.386C182.983 458.367 182.183 458.175 181.488 458.374C180.793 458.573 180.248 459.224 179.582 459.572C177.549 460.63 175.424 460.82 173.304 460.041C169.257 458.558 168.034 454.279 170.587 450.707C172.855 447.532 177.599 446.381 180.838 448.219C183.662 449.822 184.7 453.048 183.211 455.951C182.773 456.791 182.724 457.364 183.454 457.946C183.59 458.053 183.672 458.231 183.786 458.386ZM173.079 454.184C173.515 454.009 173.738 453.537 173.589 453.114C173.429 452.665 172.915 452.439 172.461 452.621C172.008 452.803 171.784 453.326 171.976 453.752C172.161 454.161 172.652 454.356 173.079 454.184ZM177.461 450.613C177.043 450.781 176.81 451.257 176.959 451.68C177.119 452.129 177.621 452.35 178.066 452.171C178.502 451.996 178.72 451.536 178.558 451.108C178.411 450.664 177.905 450.434 177.461 450.613Z" fill="#4A0056"/>
</g>
</g>
<defs>
<clipPath id="clip0_423_269">
<rect width="704" height="478" rx="12" fill="white"/>
</clipPath>
</defs>
</svg>
