<svg width="116" height="48" viewBox="0 0 116 48" fill="none" xmlns="http://www.w3.org/2000/svg">
<path d="M21.4094 14.2113H3.89262C1.75168 14.2113 0 15.9701 0 18.1198V29.8453C0 31.995 1.75168 33.7538 3.89262 33.7538H18.1007L23.745 39.4212C23.9396 39.6166 24.1343 39.6166 24.5235 39.6166C24.7182 39.6166 24.7182 39.6166 24.9128 39.6166C25.3021 39.4212 25.4967 39.0303 25.4967 38.6395V18.1198C25.3021 15.9701 23.5504 14.2113 21.4094 14.2113Z" fill="#B78DEB"/>
<path d="M27.2484 8.34857C25.1075 8.34857 9.7316 8.34857 9.7316 8.34857C7.59066 8.34857 5.83898 10.1074 5.83898 12.2571H21.4095C24.7182 12.2571 27.2484 14.7976 27.2484 18.1198V31.2133L29.3894 33.363C29.584 33.5584 29.7786 33.5584 30.1679 33.5584C30.3625 33.5584 30.3625 33.5584 30.5571 33.5584C30.9464 33.363 31.141 32.9722 31.141 32.5813C31.141 32.5813 31.141 14.4068 31.141 12.2571C31.141 10.1074 29.3894 8.34857 27.2484 8.34857Z" fill="#B78DEB"/>
<path d="M48.4113 32.4926C46.129 32.4926 44.3474 31.8622 43.0666 30.6015C41.809 29.3178 41.1802 27.633 41.1802 25.5471C41.1802 23.6904 41.5528 22.0629 42.298 20.6646C43.0433 19.2663 44.0098 18.189 45.1975 17.4325C46.3852 16.6761 47.6311 16.2979 48.9353 16.2979C50.2162 16.2979 51.206 16.6761 51.9046 17.4325C52.6266 18.166 52.9875 19.1173 52.9875 20.2864C52.9875 21.2491 52.7663 22.0629 52.3238 22.7276C51.9046 23.3924 51.3457 23.7247 50.647 23.7247C50.2045 23.7247 49.8436 23.6216 49.5641 23.4153C49.3079 23.209 49.1798 22.9224 49.1798 22.5557C49.1798 22.3952 49.2031 22.2119 49.2497 22.0056C49.2963 21.7993 49.3312 21.6503 49.3545 21.5586C49.471 21.2147 49.5292 20.8938 49.5292 20.5958C49.5292 20.2978 49.4477 20.0686 49.2846 19.9081C49.1449 19.7477 48.9353 19.6675 48.6558 19.6675C48.1202 19.6675 47.6195 19.9081 47.1537 20.3895C46.688 20.848 46.3153 21.4783 46.0359 22.2806C45.7564 23.0829 45.6167 23.9654 45.6167 24.9282C45.6167 27.5872 46.7928 28.9167 49.1449 28.9167C50.0997 28.9167 51.1244 28.6072 52.219 27.9883C53.3369 27.3465 54.4314 26.3952 55.5027 25.1345C55.7822 24.8136 56.0966 24.6531 56.4459 24.6531C56.7487 24.6531 56.9816 24.7906 57.1446 25.0657C57.3309 25.3408 57.424 25.719 57.424 26.2004C57.424 27.0714 57.2028 27.782 56.7603 28.3321C55.6657 29.6616 54.3499 30.6932 52.8129 31.4267C51.2991 32.1373 49.8319 32.4926 48.4113 32.4926Z" fill="#49687E"/>
<path d="M73.988 24.6531C74.2908 24.6531 74.5237 24.7906 74.6867 25.0657C74.873 25.3408 74.9662 25.719 74.9662 26.2004C74.9662 27.1173 74.7449 27.8279 74.3024 28.3321C73.2311 29.547 72.1249 30.5442 70.9838 31.3235C69.8659 32.1029 68.5851 32.4926 67.1412 32.4926C65.9534 32.4926 65.0568 32.1602 64.4513 31.4954C63.8458 30.8078 63.5431 29.8221 63.5431 28.5385C63.5431 27.8966 63.7061 26.7505 64.0321 25.1001C64.3349 23.656 64.4862 22.6588 64.4862 22.1087C64.4862 21.7419 64.3582 21.5586 64.102 21.5586C63.7992 21.5586 63.3684 21.9482 62.8095 22.7276C62.2505 23.484 61.6916 24.4926 61.1327 25.7534C60.5737 27.0141 60.1196 28.3436 59.7703 29.7419C59.3278 31.5757 58.2332 32.4926 56.4866 32.4926C55.7879 32.4926 55.3221 32.2519 55.0893 31.7705C54.8797 31.2662 54.7749 30.3722 54.7749 29.0886C54.7749 28.3551 54.7865 27.7705 54.8098 27.335L54.8447 24.5843C54.8447 21.0543 55.2057 17.3752 55.9276 13.5472C56.6729 9.71912 57.7558 6.50998 59.1764 3.91974C60.6203 1.30658 62.3437 0 64.3465 0C65.4178 0 66.2795 0.458449 66.9316 1.37535C67.6069 2.26932 67.9446 3.43837 67.9446 4.88248C67.9446 7.19765 67.2576 9.60451 65.8836 12.1031C64.5095 14.5787 62.2738 17.4784 59.1764 20.8021C59.1066 21.9941 59.0716 23.2204 59.0716 24.4812C59.8401 22.5328 60.6902 20.9511 61.6217 19.7362C62.5766 18.4984 63.5081 17.6159 64.4164 17.0887C65.3479 16.5615 66.198 16.2979 66.9665 16.2979C68.4803 16.2979 69.2371 17.0428 69.2371 18.5328C69.2371 19.4268 68.981 21.0428 68.4686 23.3809C68.0261 25.3752 67.8049 26.6932 67.8049 27.335C67.8049 28.2519 68.1426 28.7104 68.8179 28.7104C69.2837 28.7104 69.831 28.4353 70.4598 27.8852C71.1119 27.3121 71.9736 26.3952 73.0448 25.1345C73.3243 24.8136 73.6387 24.6531 73.988 24.6531ZM63.6129 3.40399C63.1937 3.40399 62.7279 3.99997 62.2156 5.19194C61.7032 6.36098 61.2025 7.95409 60.7135 9.97126C60.2477 11.9655 59.8634 14.1432 59.5607 16.5042C61.0046 14.8308 62.1923 13.0085 63.1239 11.0372C64.0787 9.06583 64.5561 7.27788 64.5561 5.67331C64.5561 4.93979 64.4746 4.37819 64.3116 3.98851C64.1486 3.59882 63.9157 3.40399 63.6129 3.40399Z" fill="#49687E"/>
<path d="M76.4317 32.4926C74.9878 32.4926 73.835 31.9768 72.9733 30.9453C72.1117 29.9138 71.6808 28.5614 71.6808 26.888C71.6808 25.0542 72.1117 23.3236 72.9733 21.6961C73.835 20.0457 74.9762 18.7276 76.3968 17.742C77.8407 16.7334 79.3661 16.2291 80.973 16.2291C81.4854 16.2291 81.823 16.3322 81.9861 16.5385C82.1724 16.7219 82.3237 17.0658 82.4402 17.5701C82.9292 17.4784 83.4416 17.4325 83.9772 17.4325C85.1184 17.4325 85.689 17.8337 85.689 18.636C85.689 19.1173 85.5143 20.2634 85.165 22.0743C84.6293 24.7104 84.3615 26.5442 84.3615 27.5757C84.3615 27.9195 84.443 28.1946 84.606 28.4009C84.7923 28.6072 85.0252 28.7104 85.3047 28.7104C85.7472 28.7104 86.2828 28.4353 86.9116 27.8852C87.5404 27.3121 88.3904 26.3952 89.4617 25.1345C89.7412 24.8136 90.0556 24.6531 90.4049 24.6531C90.7077 24.6531 90.9406 24.7906 91.1036 25.0657C91.2899 25.3408 91.383 25.719 91.383 26.2004C91.383 27.1173 91.1618 27.8279 90.7193 28.3321C89.7645 29.5012 88.7514 30.4869 87.6801 31.2891C86.6089 32.0914 85.5725 32.4926 84.5711 32.4926C83.8026 32.4926 83.0923 32.2404 82.4402 31.7361C81.8114 31.2089 81.334 30.4983 81.0079 29.6043C79.7969 31.5298 78.2715 32.4926 76.4317 32.4926ZM77.6893 29.0198C78.2016 29.0198 78.6907 28.7218 79.1565 28.1258C79.6223 27.5299 79.9599 26.739 80.1695 25.7534L81.4621 19.4268C80.4839 19.4497 79.5757 19.8165 78.7373 20.5271C77.9222 21.2147 77.2701 22.1316 76.781 23.2778C76.292 24.4239 76.0474 25.6388 76.0474 26.9224C76.0474 27.633 76.1872 28.1602 76.4666 28.5041C76.7694 28.8479 77.1769 29.0198 77.6893 29.0198Z" fill="#49687E"/>
<path d="M104.124 24.6531C104.427 24.6531 104.66 24.7906 104.823 25.0657C105.009 25.3408 105.102 25.719 105.102 26.2004C105.102 27.1173 104.881 27.8279 104.438 28.3321C103.437 29.547 102.342 30.5442 101.155 31.3235C99.967 32.1029 98.6046 32.4926 97.0676 32.4926C92.3167 32.4926 89.9412 29.2032 89.9412 22.6245C89.9412 21.6159 89.9762 20.5958 90.046 19.5643H88.6836C87.985 19.5643 87.5076 19.4382 87.2514 19.1861C87.0185 18.9339 86.9021 18.5328 86.9021 17.9827C86.9021 16.699 87.4261 16.0572 88.474 16.0572H90.4652C90.8611 13.5357 91.4666 11.232 92.2817 9.14606C93.0969 7.06012 94.075 5.39824 95.2161 4.16042C96.3806 2.92261 97.6265 2.30371 98.954 2.30371C99.9321 2.30371 100.701 2.72777 101.26 3.5759C101.818 4.42403 102.098 5.48993 102.098 6.77359C102.098 10.3266 100.584 13.4211 97.5566 16.0572H101.469C101.842 16.0572 102.11 16.1374 102.273 16.2979C102.436 16.4583 102.517 16.7563 102.517 17.1918C102.517 18.7735 101.201 19.5643 98.5697 19.5643H94.3079C94.2613 20.7104 94.238 21.6044 94.238 22.2462C94.238 24.6302 94.5175 26.3035 95.0764 27.2663C95.6586 28.229 96.5669 28.7104 97.8012 28.7104C98.8026 28.7104 99.6876 28.4124 100.456 27.8164C101.225 27.2204 102.133 26.3264 103.181 25.1345C103.46 24.8136 103.775 24.6531 104.124 24.6531ZM98.0108 5.60454C97.6614 5.60454 97.2655 6.04007 96.823 6.91112C96.4039 7.75925 95.9963 8.95122 95.6004 10.487C95.2278 11.9999 94.9134 13.6847 94.6572 15.5414C96.0312 14.3724 97.0559 13.0658 97.7313 11.6217C98.43 10.1546 98.7793 8.82514 98.7793 7.63318C98.7793 6.28075 98.5231 5.60454 98.0108 5.60454Z" fill="#49687E"/>
<path d="M114.484 16.2979C115.02 16.2979 115.393 16.3666 115.602 16.5042C115.812 16.6417 115.917 16.8709 115.917 17.1918C115.917 17.742 115.614 19.7018 115.008 23.0714C114.473 26.3035 114.158 28.2175 114.065 28.8135C113.204 34.7046 112.016 39.3693 110.502 42.8077C108.988 46.246 106.974 47.9652 104.459 47.9652C103.271 47.9652 102.304 47.5985 101.559 46.8649C100.814 46.1544 100.441 45.2145 100.441 44.0455C100.441 42.9681 100.686 41.8679 101.175 40.7447C101.687 39.6215 102.619 38.3263 103.97 36.8593C105.344 35.4152 107.277 33.7533 109.768 31.8737L109.873 31.0828C110.036 30.2347 110.223 29.0198 110.432 27.4382C109.966 29.0886 109.314 30.3493 108.476 31.2204C107.638 32.0685 106.753 32.4926 105.821 32.4926C104.773 32.4926 103.911 32.0227 103.236 31.0828C102.584 30.1201 102.258 28.9281 102.258 27.5069C102.258 25.7878 102.374 24.2176 102.607 22.7964C102.84 21.3523 103.224 19.8279 103.76 18.2233C103.993 17.5357 104.319 17.0428 104.738 16.7449C105.157 16.4469 105.821 16.2979 106.729 16.2979C107.242 16.2979 107.591 16.3781 107.777 16.5385C107.987 16.699 108.092 16.9397 108.092 17.2606C108.092 17.444 107.964 18.0629 107.707 19.1173C107.475 19.9655 107.288 20.7334 107.148 21.421C106.962 22.3609 106.799 23.2663 106.659 24.1373C106.52 24.9855 106.45 25.6846 106.45 26.2347C106.45 27.1058 106.694 27.5413 107.183 27.5413C107.533 27.5413 107.964 27.1975 108.476 26.5098C109.012 25.8221 109.571 24.7792 110.153 23.3809C110.758 21.9826 111.34 20.2634 111.899 18.2233C112.086 17.5357 112.365 17.0428 112.738 16.7449C113.134 16.4469 113.716 16.2979 114.484 16.2979ZM104.843 44.63C105.425 44.63 106.077 43.9653 106.799 42.6358C107.521 41.3063 108.243 39.0942 108.965 35.9997C107.172 37.4897 105.868 38.8421 105.053 40.057C104.261 41.2948 103.865 42.3722 103.865 43.2891C103.865 43.6787 103.935 43.9996 104.074 44.2518C104.237 44.5039 104.494 44.63 104.843 44.63Z" fill="#49687E"/>
</svg>
